<?xml version="1.0" standalone="no"?>
<!DOCTYPE svg PUBLIC "-//W3C//DTD SVG 20010904//EN"
 "http://www.w3.org/TR/2001/REC-SVG-20010904/DTD/svg10.dtd">
<svg version="1.0" xmlns="http://www.w3.org/2000/svg"
 width="920.000000pt" height="512.000000pt" viewBox="0 0 920.000000 512.000000"
 preserveAspectRatio="xMidYMid meet">

<g transform="translate(0.000000,512.000000) scale(0.100000,-0.100000)"
fill="#000000" stroke="none">
<path d="M4519 5067 c-40 -27 -61 -77 -54 -129 3 -21 3 -38 1 -38 -2 0 -20 7
-39 15 -20 8 -52 15 -72 15 -20 0 -52 7 -72 15 -47 20 -88 19 -145 -3 -75 -29
-130 -73 -158 -128 -23 -45 -25 -57 -20 -144 2 -52 4 -141 4 -197 1 -57 3
-103 6 -103 8 0 63 59 82 88 14 21 16 19 28 -52 7 -43 10 -94 5 -121 l-7 -47
26 18 c14 11 26 22 26 27 0 4 6 7 14 7 19 0 70 66 86 112 10 28 11 50 3 92
l-10 56 23 -15 c29 -18 58 -19 72 -2 8 9 7 29 -4 71 -17 65 -8 110 27 141 23
21 71 24 94 5 14 -11 13 -16 -5 -47 -24 -41 -25 -74 -5 -113 24 -46 10 -104
-32 -138 -80 -64 -85 -71 -79 -106 6 -31 4 -34 -33 -51 -22 -10 -65 -44 -96
-76 -60 -62 -90 -73 -119 -43 -20 20 -32 12 -39 -26 -6 -27 -27 -44 -27 -21 0
5 -13 12 -29 16 -37 8 -95 -16 -116 -48 -13 -21 -22 -25 -48 -20 -25 4 -41 -2
-73 -25 -42 -30 -42 -30 -63 -11 -42 39 -22 120 33 130 33 7 42 34 24 72 -22
47 -65 64 -107 42 -17 -9 -36 -13 -40 -10 -26 15 31 85 70 85 27 0 82 -52 106
-102 26 -51 58 -83 91 -91 46 -11 52 -1 52 88 0 145 -39 194 -181 225 -73 16
-139 -4 -191 -58 -61 -63 -72 -95 -72 -202 0 -99 4 -110 64 -206 l20 -30 -65
-67 c-35 -37 -68 -79 -71 -93 -9 -36 16 -82 68 -124 46 -39 61 -70 49 -104
-11 -27 -40 -41 -55 -26 -8 8 -6 20 7 43 18 30 18 32 1 44 -23 17 -42 16 -79
-3 -34 -18 -43 -30 -67 -99 -21 -60 -23 -96 -5 -114 10 -10 8 -15 -7 -27 -27
-20 -65 -18 -103 6 -29 17 -33 25 -33 64 0 68 32 82 53 24 13 -36 37 -17 56
44 10 32 9 42 -7 75 -26 50 -67 73 -131 73 -109 0 -166 -80 -142 -199 9 -45
20 -65 56 -101 25 -25 45 -48 45 -51 0 -3 -19 -12 -42 -19 -77 -24 -149 -62
-193 -104 -44 -42 -85 -108 -85 -136 0 -9 -5 -21 -11 -27 -7 -7 -11 -49 -11
-110 0 -54 -6 -124 -14 -156 -12 -52 -12 -66 3 -125 19 -78 33 -110 78 -172
69 -95 118 -220 86 -220 -6 0 -17 -11 -23 -25 -14 -31 -28 -32 -28 -2 0 26
-29 72 -56 91 -36 25 -164 89 -169 84 -3 -2 0 -19 5 -38 5 -19 7 -50 4 -71 -8
-46 9 -99 41 -129 30 -29 32 -40 4 -40 -31 0 -57 -18 -74 -50 -14 -26 -14 -33
1 -70 17 -42 31 -50 40 -25 4 8 12 15 20 15 17 0 17 -1 -1 -36 -8 -16 -15 -37
-15 -46 0 -37 -21 -15 -55 57 -19 42 -35 79 -35 83 -1 4 -9 25 -20 47 -11 22
-19 45 -20 51 0 6 -6 17 -14 23 -21 18 -36 -16 -36 -81 0 -84 27 -270 44 -303
9 -17 16 -36 16 -43 0 -7 4 -20 10 -30 5 -9 34 -69 65 -132 61 -124 72 -140
181 -270 68 -81 222 -230 298 -289 18 -14 74 -60 123 -101 49 -41 107 -89 128
-106 37 -29 38 -31 23 -53 -9 -13 -30 -32 -47 -42 -24 -14 -31 -26 -31 -49 0
-34 23 -87 49 -110 55 -51 172 -132 326 -227 49 -31 126 -69 195 -98 41 -18
95 -41 120 -52 108 -48 255 -90 350 -99 14 -1 59 -7 100 -13 125 -17 306 -12
405 12 11 2 47 8 80 12 98 11 369 80 442 111 17 8 33 14 36 14 3 0 53 23 112
50 127 60 192 101 301 192 61 51 84 77 94 107 7 22 10 46 7 54 -3 8 -1 19 5
25 8 8 4 14 -13 21 -13 5 -37 23 -53 39 -27 29 -27 31 -10 46 26 21 104 79
123 91 265 166 548 455 646 661 82 172 105 268 105 449 0 87 -13 162 -32 180
-3 3 -11 -16 -17 -42 -16 -62 -51 -143 -62 -143 -5 0 -9 15 -9 34 0 36 -21 66
-46 66 -17 0 -18 22 -2 38 7 7 10 39 9 84 -4 100 -4 100 5 127 5 18 4 22 -7
18 -8 -3 -39 -14 -69 -24 -60 -20 -117 -70 -126 -112 -15 -66 -15 -67 -30 -38
-8 15 -23 31 -34 37 -11 6 -20 18 -20 28 0 9 30 62 65 117 110 169 120 194
118 308 -1 54 -5 103 -11 110 -5 7 -12 65 -15 130 -5 111 -7 121 -41 181 -31
56 -64 92 -132 146 -10 9 -39 23 -64 33 -75 29 -75 29 -27 78 60 60 78 132 53
211 -19 56 -41 88 -62 88 -7 0 -14 5 -16 11 -6 17 -80 29 -121 19 -69 -15
-102 -80 -85 -166 16 -82 58 -113 58 -44 0 33 15 48 24 24 11 -28 6 -79 -9
-101 -18 -25 -72 -40 -88 -24 -6 6 -12 39 -12 74 -1 48 -8 75 -30 117 -16 30
-36 60 -45 67 -18 15 -79 17 -100 3 -12 -8 -12 -11 3 -28 33 -36 11 -103 -29
-88 -13 5 -16 17 -12 67 4 58 7 64 51 103 68 61 93 121 64 156 -15 19 -114 97
-129 102 -12 4 -9 14 23 67 62 104 80 251 38 330 -49 94 -144 151 -251 151
-82 0 -134 -22 -174 -75 -42 -55 -43 -111 -5 -181 17 -32 31 -66 31 -76 0 -20
12 -23 41 -8 20 11 59 79 59 104 0 8 12 28 26 45 37 44 88 43 131 -1 18 -18
35 -46 38 -63 l7 -30 -17 25 c-10 14 -25 31 -33 38 -17 13 -90 16 -108 4 -20
-14 -44 -57 -44 -79 0 -21 5 -23 45 -23 39 0 46 -4 60 -30 21 -42 19 -71 -11
-105 -19 -23 -27 -27 -31 -16 -3 8 -17 26 -30 39 -24 24 -42 25 -99 7 -16 -5
-23 -2 -27 14 -6 26 -64 61 -99 61 -16 0 -28 5 -28 13 0 7 -7 22 -15 33 -14
19 -15 18 -40 -8 -41 -45 -83 -39 -136 19 -24 26 -63 67 -86 90 -24 23 -43 52
-43 63 0 30 -75 107 -110 114 -27 5 -29 8 -25 43 2 21 11 53 20 71 21 40 15
90 -14 131 -12 16 -21 33 -21 39 0 17 41 21 79 9 33 -11 36 -15 39 -54 2 -27
-3 -51 -12 -65 -22 -30 -20 -55 4 -68 28 -15 72 10 100 55 31 51 42 43 18 -12
-46 -101 -20 -252 52 -303 15 -11 30 -20 33 -20 2 0 12 35 22 78 10 42 24 90
30 105 l12 29 15 -39 c9 -21 25 -46 35 -56 33 -29 37 -18 74 168 20 101 -9
210 -77 284 -51 58 -109 80 -230 91 -107 9 -162 2 -184 -25 -22 -26 -27 -17
-33 62 -4 58 -10 81 -26 97 -20 19 -22 19 -55 3 -31 -14 -38 -15 -63 -2 -36
19 -34 19 -74 -8z m84 -32 c18 -5 33 -3 40 4 15 15 57 14 58 -1 0 -7 2 -22 4
-34 4 -17 0 -20 -19 -17 -21 4 -25 -1 -40 -56 -9 -33 -22 -64 -28 -67 -13 -8
-38 24 -54 70 -9 26 -16 31 -42 31 -28 0 -31 2 -26 25 4 14 15 33 26 42 20 18
28 18 81 3z m-343 -110 c0 -2 -17 -13 -38 -24 -39 -20 -144 -128 -147 -152 -2
-9 6 -14 20 -14 13 0 21 4 18 9 -6 10 91 102 127 121 14 7 53 19 87 25 59 12
65 11 110 -11 26 -13 53 -35 60 -49 15 -31 25 -63 22 -70 -4 -10 -42 2 -61 20
-39 36 -113 31 -148 -11 -30 -34 -46 -121 -31 -170 15 -51 10 -58 -18 -22 -36
49 -41 53 -61 53 -18 0 -26 21 -21 53 1 5 -3 6 -8 3 -5 -4 -12 -2 -16 4 -3 5
-10 10 -16 10 -14 0 -11 -63 6 -86 8 -12 11 -24 8 -28 -3 -3 -2 -6 3 -6 6 0
18 -23 28 -51 26 -72 18 -131 -25 -176 l-34 -34 -7 48 c-4 26 -11 78 -15 116
-9 70 -30 104 -57 94 -11 -4 -16 -19 -16 -46 0 -21 -6 -51 -14 -65 -12 -24
-14 -10 -20 136 -8 172 -5 192 36 241 32 39 133 86 186 87 23 0 42 -2 42 -5z
m280 -34 c0 -27 42 -61 74 -61 38 0 49 7 69 45 12 21 16 25 17 12 0 -10 -11
-38 -25 -61 -14 -24 -24 -53 -23 -66 2 -13 -3 -25 -9 -27 -9 -3 -13 8 -13 36
0 35 -3 41 -21 41 -16 0 -20 -6 -18 -27 5 -72 -13 -83 -26 -16 -4 21 -15 57
-26 80 -20 45 -27 101 -9 73 5 -8 10 -21 10 -29z m419 -12 c18 -13 49 -47 71
-75 21 -28 48 -54 59 -57 19 -5 19 -4 3 32 -9 20 -31 57 -49 84 -21 30 -28 47
-19 47 23 0 76 -22 76 -31 0 -5 6 -9 14 -9 8 0 31 -20 52 -45 31 -39 38 -56
48 -128 10 -67 10 -93 -2 -147 -16 -72 -39 -112 -26 -45 15 73 11 100 -13 103
-26 4 -50 -28 -59 -79 -4 -18 -12 -45 -19 -59 -7 -14 -16 -51 -20 -83 -4 -31
-11 -57 -15 -57 -5 0 -19 15 -32 32 -33 48 -38 159 -9 214 29 54 27 88 -5 102
-28 13 -64 1 -64 -22 0 -7 -11 -23 -24 -35 l-24 -23 5 60 c7 73 -10 104 -68
121 -35 11 -48 10 -90 -5 -27 -10 -52 -15 -55 -11 -17 17 59 120 100 138 39
16 130 4 165 -22z m-386 -202 c15 -17 27 -37 27 -44 0 -27 19 -11 40 32 23 48
54 65 87 47 17 -10 17 -11 -2 -17 -56 -18 -65 -25 -65 -50 0 -14 9 -34 21 -46
l20 -20 -32 3 c-28 2 -34 -1 -39 -21 -8 -34 -28 -38 -36 -7 -7 27 -32 34 -51
15 -13 -13 -43 -5 -43 10 0 5 9 11 20 14 11 3 25 17 31 31 10 22 9 29 -6 46
-24 26 -53 34 -70 20 -20 -17 -19 -32 3 -29 32 3 42 -1 42 -16 0 -10 -10 -15
-30 -15 -28 0 -30 -2 -25 -27 6 -27 6 -27 -9 -9 -22 28 -20 82 4 106 27 27 77
17 113 -23z m207 -55 c0 -13 -9 -37 -21 -53 -12 -18 -18 -37 -14 -48 4 -14 0
-23 -14 -30 -22 -12 -74 -15 -84 -5 -12 12 14 44 35 44 29 0 68 38 68 66 0 15
-10 26 -30 34 -17 7 -29 17 -27 23 6 19 24 18 43 0 17 -17 18 -17 11 0 -4 11
-4 24 -1 29 9 14 33 -30 34 -60z m-251 -99 c19 4 31 -1 44 -19 l18 -24 -32 0
c-48 0 -101 21 -94 38 3 7 5 18 5 24 0 5 7 2 17 -7 10 -11 26 -15 42 -12z
m-739 -101 c26 -13 53 -35 63 -53 17 -31 24 -119 9 -119 -11 0 -52 47 -52 60
0 6 -4 10 -10 10 -5 0 -10 -10 -10 -22 0 -21 -2 -21 -19 7 -32 53 -67 77 -109
79 -49 1 -89 -25 -109 -71 -27 -67 9 -119 48 -69 24 30 63 34 91 9 26 -23 23
-50 -6 -57 -14 -3 -35 -20 -47 -37 -31 -44 -22 -103 24 -145 19 -17 37 -41 40
-53 6 -24 -5 -28 -22 -7 -7 8 -34 20 -61 26 -85 20 -135 113 -135 250 0 75 3
90 28 132 43 71 77 90 162 85 46 -2 86 -11 115 -25z m874 12 c3 -8 2 -12 -4
-9 -6 3 -10 10 -10 16 0 14 7 11 14 -7z m934 0 c79 -33 142 -123 142 -205 0
-55 -33 -162 -69 -224 -27 -48 -30 -50 -90 -60 -67 -13 -84 0 -35 25 90 49 64
220 -34 224 -36 1 -36 1 -22 26 24 44 101 31 123 -22 19 -46 41 -62 65 -49 17
9 19 16 12 43 -13 53 -21 71 -57 115 -41 52 -102 67 -151 38 -31 -18 -62 -63
-62 -88 0 -18 -29 -77 -39 -77 -4 0 -15 19 -25 42 -16 35 -17 44 -6 62 12 19
12 20 -3 7 -15 -12 -17 -10 -17 23 0 55 25 95 73 117 52 23 144 25 195 3z
m-997 -11 c13 -16 12 -17 -3 -4 -17 13 -22 21 -14 21 2 0 10 -8 17 -17z m-136
-4 c11 -17 2 -18 -19 -3 -17 12 -17 14 -4 14 9 0 20 -5 23 -11z m-44 -39 c14
-11 18 -19 11 -20 -19 0 -52 19 -52 30 0 16 16 12 41 -10z m204 -54 c48 5 71
3 95 -10 21 -10 46 -14 69 -10 59 8 88 -24 112 -121 20 -85 19 -105 -6 -105
-8 0 -15 -7 -15 -15 0 -8 9 -15 20 -15 19 0 20 -4 14 -37 -4 -21 -16 -47 -27
-57 -24 -24 -60 -103 -52 -116 10 -16 22 -12 45 13 l21 22 -9 -25 c-6 -14 -17
-38 -26 -55 l-16 -30 48 -5 47 -5 -35 -14 c-46 -19 -125 -66 -178 -109 -24
-19 -46 -31 -49 -28 -8 8 81 90 123 112 34 18 44 34 23 34 -17 0 -108 -69
-162 -122 -26 -27 -52 -48 -57 -48 -6 0 -10 31 -10 69 l0 69 48 6 c66 10 168
44 183 62 11 13 9 14 -17 8 -16 -4 -33 -10 -39 -14 -14 -11 -63 -19 -175 -29
-77 -7 -98 -6 -117 6 -13 9 -23 20 -23 26 0 7 4 7 12 -1 7 -7 18 -12 26 -12
10 0 7 8 -8 30 -13 18 -30 30 -44 30 -12 0 -27 5 -33 11 -7 7 -13 7 -17 1 -3
-6 9 -20 27 -31 l32 -22 -39 6 c-22 3 -46 10 -53 17 -18 14 -29 3 -15 -15 19
-23 105 -65 147 -72 77 -13 75 -11 75 -72 l0 -55 -52 44 c-59 49 -161 118
-176 118 -5 0 -18 27 -29 60 -21 63 -18 73 12 40 40 -44 43 -12 7 77 -9 24
-20 43 -23 43 -4 0 -2 21 2 47 6 32 6 49 -1 51 -22 8 -7 140 21 198 13 25 77
49 106 40 11 -4 32 0 48 8 20 10 35 12 52 5 14 -5 53 -6 88 -3z m402 -168 c44
-48 95 -63 137 -43 16 8 31 14 33 12 1 -2 -4 -21 -13 -43 -12 -31 -24 -43 -60
-58 -31 -12 -44 -24 -44 -37 0 -45 61 -99 111 -99 27 0 99 71 99 98 0 36 -11
52 -37 52 -21 0 -24 4 -21 28 4 35 44 42 76 12 27 -26 30 -84 6 -151 -14 -38
-23 -48 -50 -57 -18 -5 -44 -7 -58 -5 -20 4 -31 -1 -46 -20 -18 -22 -24 -24
-49 -16 -66 23 -131 120 -131 198 0 28 -3 33 -20 28 -18 -5 -20 0 -20 46 0 29
-7 74 -15 101 -24 78 -19 86 27 36 22 -25 56 -62 75 -82z m-747 61 c-7 -24
-13 -74 -14 -111 -1 -62 -3 -67 -21 -62 -16 4 -25 -7 -50 -58 -16 -36 -51 -85
-80 -113 l-50 -50 -3 32 c-4 43 -29 55 -101 49 l-58 -5 -18 53 c-30 88 -4 154
61 159 25 2 29 -2 29 -23 0 -19 -6 -26 -24 -28 -21 -3 -23 -7 -17 -40 8 -55
53 -95 106 -94 32 1 47 7 66 27 32 35 30 52 -11 89 -19 17 -35 42 -37 56 -3
23 0 25 34 22 34 -3 43 2 115 71 43 42 79 74 81 72 2 -2 -2 -23 -8 -46z m-190
-228 c0 -5 -14 -14 -31 -21 -27 -11 -33 -11 -57 7 -33 25 -39 43 -14 43 13 0
22 9 27 27 l6 27 35 -38 c19 -20 34 -41 34 -45z m-315 0 c1 -95 50 -134 164
-130 37 1 73 -1 78 -4 6 -4 13 -21 16 -39 4 -28 0 -37 -27 -60 -32 -29 -55
-35 -72 -19 -5 5 -33 15 -61 24 -57 16 -138 7 -158 -18 -8 -10 -24 -4 -75 27
-116 72 -181 83 -200 35 -8 -20 -9 -20 -9 -3 -1 27 48 76 75 76 12 0 53 -13
91 -30 82 -34 116 -32 111 9 -3 24 -7 26 -63 29 -33 2 -64 7 -69 13 -6 5 -20
9 -33 9 -40 0 -23 30 25 45 15 4 42 -3 87 -25 87 -42 98 -37 89 39 -5 51 -4
60 12 70 11 6 19 11 19 11 0 0 0 -27 0 -59z m1690 33 c30 -23 27 -86 -8 -122
-15 -15 -27 -31 -27 -35 0 -14 36 -6 85 18 47 23 114 33 128 18 4 -3 -15 -14
-42 -23 -59 -20 -104 -48 -96 -60 6 -9 46 1 104 27 48 22 139 13 161 -15 11
-13 15 -31 12 -47 -4 -25 -5 -25 -24 -8 -33 29 -86 21 -167 -27 -67 -40 -74
-42 -98 -29 -38 20 -169 18 -212 -4 -48 -24 -58 -22 -104 20 -23 20 -32 33
-22 29 32 -12 52 -15 74 -9 37 9 23 25 -19 21 -31 -3 -39 0 -37 12 5 30 18 38
75 42 66 5 116 34 165 97 23 29 28 43 24 74 -6 41 -2 44 28 21z m-1648 -16
c-3 -8 -6 -5 -6 6 -1 11 2 17 5 13 3 -3 4 -12 1 -19z m1580 -10 c-3 -8 -6 -5
-6 6 -1 11 2 17 5 13 3 -3 4 -12 1 -19z m-1129 4 c12 -8 7 -42 -7 -42 -10 0
-30 37 -24 44 8 8 15 7 31 -2z m932 -7 c0 -8 7 -15 15 -15 8 0 15 7 15 15 0 8
5 15 10 15 18 0 10 -39 -12 -60 -26 -24 -65 -26 -90 -3 -24 22 -23 30 10 47
35 20 52 20 52 1z m-1353 -41 c7 -15 10 -31 7 -36 -9 -13 -44 22 -44 44 0 27
23 22 37 -8z m1091 -16 l-13 -23 -3 24 c-2 13 2 27 10 32 18 12 22 -5 6 -33z
m445 26 c8 -8 -3 -34 -14 -34 -5 0 -9 9 -9 20 0 19 11 26 23 14z m-1133 -61
c0 -13 -7 -40 -15 -60 -8 -19 -15 -46 -15 -59 0 -17 -6 -24 -18 -24 -21 0
-100 -54 -120 -82 -16 -23 -31 -22 -59 1 -25 21 -30 41 -11 41 18 0 168 161
190 204 19 38 21 39 34 21 8 -10 14 -29 14 -42z m732 3 c3 -15 103 -130 166
-192 42 -41 43 -43 22 -54 -18 -9 -27 -6 -61 24 -23 19 -56 42 -74 50 -18 9
-37 22 -43 29 -11 13 -42 119 -42 144 0 17 28 17 32 -1z m-1445 -117 c6 -6 22
-17 35 -23 16 -9 22 -19 20 -37 -5 -46 -1 -81 10 -103 17 -30 12 -46 -30 -89
-64 -66 -123 -98 -173 -93 -33 3 -46 9 -53 26 -7 14 -6 24 1 28 5 4 12 28 15
54 7 57 22 78 55 78 22 0 24 -3 19 -25 -9 -37 9 -65 43 -65 36 0 65 25 81 72
12 31 11 38 -2 52 -9 9 -18 19 -20 24 -1 4 -20 21 -40 36 -21 16 -38 34 -38
40 0 31 54 48 77 25z m803 -44 c7 -8 16 -15 21 -15 12 0 91 -55 110 -77 9 -10
28 -28 42 -40 15 -13 27 -28 27 -34 0 -6 -5 -5 -13 3 -8 7 -26 22 -42 33 -15
11 -43 32 -60 48 -18 15 -64 43 -101 62 -66 34 -67 35 -32 35 19 0 41 -7 48
-15z m-433 -40 c54 -24 184 -116 217 -153 25 -28 96 -62 138 -66 18 -2 44 -7
58 -13 14 -6 51 -13 82 -17 51 -7 61 -12 100 -54 24 -26 53 -60 65 -77 l21
-29 27 33 c16 18 50 54 77 79 l50 47 79 -4 c52 -2 84 1 94 9 8 6 19 9 25 5 5
-3 10 -1 10 5 0 5 17 18 38 28 20 9 66 38 101 64 137 102 286 149 368 117 27
-11 25 -12 -46 -30 -41 -10 -95 -29 -120 -42 -74 -39 -146 -80 -151 -86 -9
-11 -65 -46 -117 -74 -71 -38 -146 -59 -218 -62 -55 -2 -61 -5 -83 -36 -13
-19 -37 -61 -53 -94 -27 -57 -28 -68 -30 -210 -1 -82 -6 -155 -10 -161 -5 -6
-4 -27 2 -47 11 -40 6 -57 -17 -57 -8 0 -14 10 -14 26 0 15 -4 23 -10 19 -6
-4 -9 -14 -8 -22 2 -9 -2 -18 -9 -20 -16 -6 -22 36 -21 147 1 133 -12 289 -27
325 -6 17 -39 59 -71 93 -58 60 -61 62 -111 62 -83 0 -198 56 -298 144 -108
95 -184 136 -255 136 -33 0 -40 3 -40 19 0 11 6 22 13 25 21 9 90 -5 144 -29z
m436 -19 c37 -21 104 -73 148 -116 71 -69 80 -81 77 -109 l-3 -31 -56 39 c-32
22 -71 47 -87 55 -39 20 -96 21 -112 1 -7 -8 -16 -12 -21 -9 -15 9 -10 21 11
27 24 6 26 29 5 47 -18 15 -45 6 -45 -15 0 -14 -5 -13 -32 6 -18 12 -43 32
-56 43 -13 11 -31 21 -39 21 -9 0 -18 6 -20 13 -3 6 0 12 5 12 5 0 20 9 33 21
13 11 36 23 52 26 15 3 30 9 33 14 6 10 22 3 107 -45z m1367 46 c0 -4 -6 -14
-12 -21 -18 -18 21 -3 45 17 9 8 17 11 17 6 0 -5 -12 -18 -27 -29 -69 -51 -73
-57 -74 -116 -1 -30 4 -65 10 -77 15 -27 14 -32 -4 -32 -8 0 -15 7 -15 15 0 9
-9 15 -21 15 -18 0 -19 2 -9 15 10 12 10 15 -4 15 -20 0 -20 9 -2 36 16 22 38
126 25 119 -4 -3 -10 -1 -14 4 -3 6 7 17 22 25 31 17 63 21 63 8z m-2018 -19
c4 -2 2 -14 -4 -26 -6 -12 -14 -29 -18 -37 -13 -27 -35 -17 -38 18 -5 51 17
68 60 45z m1262 0 c-28 -14 -60 -50 -52 -58 2 -2 22 4 44 15 49 21 114 37 99
23 -5 -5 -31 -17 -56 -27 -25 -9 -53 -22 -62 -29 -15 -10 -12 -12 20 -14 26
-1 33 1 23 7 -17 11 -9 13 14 4 12 -5 10 -12 -14 -37 -17 -18 -30 -35 -30 -39
0 -4 -16 -4 -36 -1 -32 5 -36 4 -32 -13 2 -11 13 -20 26 -22 15 -2 22 -10 22
-24 0 -19 -2 -20 -17 -6 -10 8 -38 23 -62 32 -39 15 -48 15 -95 2 -28 -9 -68
-27 -88 -41 -44 -30 -48 -30 -48 -7 0 20 127 149 170 173 44 25 175 78 190 78
8 0 1 -7 -16 -16z m630 -67 c0 -52 -18 -81 -34 -56 -6 8 -8 21 -5 28 3 8 -5
22 -17 32 l-22 17 30 16 c41 23 49 17 48 -37z m-2345 -3 c27 -33 37 -71 23
-85 -8 -8 -13 -7 -18 6 -9 25 -57 46 -103 46 -31 0 -41 -4 -46 -20 -3 -11 -11
-20 -17 -20 -20 0 -2 -90 22 -112 l22 -21 -8 24 c-19 57 2 129 39 129 23 0 27
-11 12 -34 -9 -11 -15 -43 -15 -71 0 -43 4 -55 28 -77 15 -14 37 -29 50 -33
23 -7 29 -20 13 -29 -15 -10 -20 -69 -9 -107 9 -33 8 -41 -16 -71 -28 -38 -36
-114 -14 -136 16 -16 1 -29 -20 -16 -17 11 -26 37 -37 106 -11 73 -85 54 -85
-22 0 -49 35 -99 88 -128 26 -15 55 -43 76 -75 37 -58 67 -87 111 -110 l30
-16 -40 -16 c-22 -8 -48 -20 -57 -25 -37 -21 -72 -11 -128 35 -61 50 -58 49
-94 35 -17 -6 -26 -17 -26 -32 0 -21 -1 -21 -28 5 -36 35 -69 36 -78 1 -10
-40 27 -71 121 -100 101 -32 150 -65 197 -134 46 -67 48 -80 7 -45 -36 29 -56
29 -75 0 -15 -23 1 -65 49 -127 34 -44 57 -115 56 -172 0 -35 -2 -38 -9 -18
-12 27 -27 28 -35 2 -3 -11 -14 -20 -23 -21 -9 0 -12 -2 -7 -5 6 -2 8 -27 6
-55 -2 -29 2 -56 8 -62 14 -14 14 -67 0 -67 -5 0 -8 -4 -4 -9 3 -5 1 -12 -5
-16 -16 -10 -12 -25 7 -25 22 0 87 43 141 94 23 22 42 35 42 29 0 -6 -7 -16
-15 -23 -14 -12 -14 -15 1 -31 10 -11 25 -19 36 -19 27 0 22 -12 -15 -38 -63
-44 -90 -73 -79 -84 7 -7 28 3 69 35 32 25 65 52 72 61 7 9 17 16 20 16 7 0
28 -44 51 -104 6 -16 20 -42 31 -58 12 -16 18 -35 15 -43 -6 -17 32 -50 80
-67 42 -15 40 -26 -22 -114 -24 -35 -44 -68 -44 -73 0 -37 -67 33 -196 205
-82 110 -93 121 -107 108 -6 -7 21 -54 38 -66 7 -5 6 -8 -1 -8 -6 0 -25 20
-43 45 -18 25 -37 43 -42 39 -6 -3 -16 0 -24 6 -8 6 -23 9 -33 6 -21 -7 -56
24 -36 31 6 2 20 10 30 18 15 11 16 16 7 26 -10 10 -15 9 -28 -1 -19 -16 -19
-10 0 26 31 59 8 174 -66 332 -21 46 -39 88 -39 93 0 17 -42 104 -54 111 -6 4
-19 8 -30 8 -17 0 -18 -6 -12 -67 l7 -68 -21 44 c-11 24 -39 71 -63 105 -77
110 -91 151 -88 261 l1 40 21 -35 c20 -32 103 -120 114 -120 15 0 0 34 -33 77
-140 177 -114 406 60 519 35 23 75 44 89 47 53 13 139 57 139 72 0 8 -15 21
-33 29 -38 15 -79 51 -95 83 -17 31 -15 119 3 153 21 40 41 49 107 50 50 0 59
-3 77 -27z m1866 7 c3 -5 -1 -10 -9 -10 -9 0 -16 5 -16 10 0 6 4 10 9 10 6 0
13 -4 16 -10z m1039 -44 c40 -30 58 -91 46 -157 -9 -46 -63 -110 -111 -130
-50 -20 -42 -27 96 -81 71 -27 160 -112 197 -185 30 -63 38 -231 14 -313 -27
-92 -14 -121 20 -42 14 33 16 35 26 18 25 -44 -8 -165 -73 -266 -9 -14 -39
-62 -67 -108 -39 -64 -51 -78 -55 -62 -3 11 6 42 21 70 30 59 24 83 -24 88
-32 4 -54 -18 -54 -54 0 -12 -7 -35 -15 -50 -8 -16 -15 -36 -15 -44 0 -9 -18
-37 -40 -64 -23 -28 -46 -70 -55 -100 -16 -57 -23 -142 -12 -152 4 -4 7 -14 7
-23 0 -8 12 -32 26 -53 31 -44 81 -65 114 -48 31 17 24 36 -14 37 -19 1 -42 6
-53 12 -15 8 -9 10 29 11 108 0 192 107 142 179 -13 19 -24 22 -55 19 -44 -4
-51 11 -23 50 26 37 84 24 84 -20 0 -21 34 -58 53 -58 11 0 26 38 42 113 8 41
54 85 98 93 l37 6 0 -72 c0 -74 -8 -99 -43 -138 -19 -21 -20 -24 -4 -39 14
-14 20 -15 43 -4 33 15 44 3 44 -46 0 -28 -4 -33 -23 -33 -23 0 -58 36 -100
103 -28 44 -37 32 -37 -48 0 -58 -4 -77 -15 -81 -8 -4 -15 -10 -15 -15 0 -5
-12 -27 -26 -49 -30 -45 -85 -75 -157 -85 -41 -5 -54 -3 -85 17 -21 14 -45 27
-55 31 -13 5 -16 13 -12 27 4 11 2 20 -4 20 -22 0 -11 -54 16 -82 l27 -28 -34
-35 c-40 -41 -63 -48 -25 -8 14 15 25 31 25 35 0 11 -40 20 -53 11 -11 -7 -25
-8 -84 -4 -13 0 -23 6 -23 12 0 6 -40 54 -90 107 -66 71 -92 106 -96 132 -11
61 -81 173 -116 185 -9 3 -31 24 -48 46 l-32 39 -132 0 c-73 0 -188 3 -254 7
l-122 6 0 35 0 35 53 -7 c28 -3 80 -9 115 -12 52 -6 62 -10 62 -25 0 -23 13
-24 30 -3 19 22 79 45 104 39 46 -12 97 -11 107 1 8 10 4 30 -14 76 -38 95
-41 112 -22 148 25 48 17 151 -13 183 -22 23 -22 25 -8 118 17 117 39 199 71
264 28 58 133 175 156 175 9 0 22 6 28 14 6 7 37 21 68 31 l56 18 44 -24 c53
-29 88 -65 98 -99 6 -22 4 -21 -14 7 -28 44 -55 56 -112 50 -90 -11 -190 -77
-245 -163 -59 -93 -79 -185 -79 -369 0 -213 22 -306 115 -495 55 -113 83 -159
146 -236 69 -87 122 -139 188 -190 73 -56 88 -48 87 42 -1 111 -11 173 -27
167 -8 -3 -14 1 -14 11 0 9 -7 16 -15 16 -8 0 -15 9 -15 19 0 11 -4 23 -10 26
-5 3 -10 22 -10 41 0 19 -3 33 -7 33 -43 -7 7 72 82 132 69 54 85 75 85 108 0
20 -27 41 -53 41 -8 0 -37 -18 -65 -40 -72 -58 -93 -54 -46 7 31 40 149 100
264 133 103 30 138 53 146 96 9 50 -14 74 -52 53 -15 -8 -36 -33 -46 -55 -10
-23 -27 -44 -38 -47 -24 -6 -25 2 -3 41 16 28 16 31 0 56 -10 14 -22 26 -27
26 -5 0 -30 -18 -56 -41 -26 -22 -58 -45 -71 -50 -27 -10 -136 -12 -146 -3 -3
4 12 20 33 35 23 17 49 48 61 74 12 26 45 65 76 92 65 56 83 87 83 146 0 32
-6 49 -21 63 -33 30 -52 8 -64 -71 -7 -49 -15 -71 -30 -81 -20 -13 -20 -12
-20 79 0 78 -4 97 -21 122 -17 23 -19 35 -12 55 10 27 2 97 -13 106 -14 8 0
24 21 24 25 0 68 53 76 95 3 19 1 48 -4 65 -9 24 -8 30 2 30 36 0 43 -50 20
-128 -6 -22 -5 -23 13 -11 27 16 53 61 53 90 0 32 -40 87 -67 92 -12 2 -41 -4
-64 -14 -23 -11 -43 -19 -44 -19 -3 0 -2 9 10 62 12 59 91 66 159 14z m-1959
-27 c20 -18 34 -34 31 -36 -6 -7 -70 32 -86 52 -24 29 18 17 55 -16z m1636 13
c17 -15 22 -28 21 -60 -1 -23 3 -42 8 -42 6 0 10 6 11 13 0 6 7 -2 15 -20 19
-45 4 -88 -29 -78 -12 4 -35 8 -52 10 -36 3 -101 30 -110 46 -5 7 1 10 16 9
39 -4 47 -1 69 22 21 23 28 82 10 93 -5 3 -10 10 -10 16 0 15 26 10 51 -9z
m-761 1 c0 -5 -18 -18 -41 -31 -39 -22 -40 -22 -30 -3 17 30 71 56 71 34z
m-400 -17 c0 -2 -7 -7 -16 -10 -8 -3 -12 -2 -9 4 6 10 25 14 25 6z m-268 -78
c-8 -8 -17 -8 -34 0 -22 10 -21 11 12 11 26 1 31 -2 22 -11z m-465 -75 c12 -8
24 -22 28 -31 5 -13 3 -13 -14 2 -15 14 -36 19 -76 19 -54 0 -63 10 -21 27 24
10 50 4 83 -17z m706 -18 c-3 -9 -8 -14 -10 -11 -3 3 -2 9 2 15 9 16 15 13 8
-4z m-1088 -25 c48 -18 114 -92 154 -170 68 -134 84 -204 85 -365 1 -139 -8
-197 -50 -334 -15 -48 -18 -101 -6 -101 4 0 101 -3 216 -5 115 -3 210 -6 212
-7 1 -2 4 -19 6 -38 l3 -35 -231 4 c-217 3 -232 3 -248 -15 -16 -18 -54 -75
-120 -181 -14 -24 -31 -43 -37 -43 -5 0 -21 11 -36 24 l-25 24 51 75 c60 89
135 236 150 292 60 232 65 385 17 555 -34 120 -109 221 -189 255 -86 35 -176
24 -211 -27 l-16 -22 0 22 c0 32 59 92 100 102 37 9 141 3 175 -10z m269 -5
c-4 -8 -8 -15 -10 -15 -2 0 -4 7 -4 15 0 8 4 15 10 15 5 0 7 -7 4 -15z m46 1
c0 -8 -4 -18 -10 -21 -5 -3 -10 3 -10 14 0 12 5 21 10 21 6 0 10 -6 10 -14z
m740 -6 c0 -5 -4 -10 -9 -10 -6 0 -13 5 -16 10 -3 6 1 10 9 10 9 0 16 -4 16
-10z m578 -27 l17 -38 3 33 c4 36 10 39 38 16 13 -11 15 -17 7 -20 -23 -10
-13 -23 22 -30 26 -5 35 -11 35 -26 0 -15 -5 -19 -20 -15 -13 3 -20 0 -20 -9
0 -8 10 -14 23 -14 30 0 40 -10 26 -27 -9 -10 -15 -10 -25 -2 -21 17 -18 -7 4
-29 19 -19 17 -56 -3 -48 -19 7 -26 -4 -15 -25 14 -25 -7 -36 -24 -14 -12 17
-13 17 -19 -4 -3 -11 -1 -24 4 -27 13 -7 1 -24 -17 -24 -8 0 -14 9 -14 20 0
29 -17 25 -64 -14 -23 -18 -50 -35 -61 -37 -11 -2 -24 -14 -30 -27 -5 -12 -16
-20 -23 -17 -7 2 -20 -5 -30 -16 -9 -11 -38 -36 -64 -56 -27 -19 -48 -41 -48
-49 0 -21 -17 -17 -34 8 -26 36 -21 51 14 43 31 -7 39 2 19 22 -7 7 0 17 25
33 20 12 36 25 36 28 0 12 88 54 99 47 6 -3 11 -1 11 4 0 6 8 11 19 11 10 0
24 7 31 15 7 8 18 15 24 15 25 0 87 66 95 101 10 42 -7 92 -34 103 -54 20
-147 -10 -179 -58 -9 -14 -25 -26 -35 -26 -10 0 -35 -11 -55 -25 -20 -14 -43
-25 -51 -25 -8 0 -15 -3 -15 -7 0 -11 -50 -33 -72 -33 -10 0 -18 5 -18 11 0
15 78 144 98 162 22 19 156 68 205 74 32 5 37 3 37 -16 0 -22 14 -28 25 -11 4
6 1 17 -5 25 -10 12 -8 17 11 24 13 5 25 10 27 10 2 1 11 -16 20 -36z m-886
-30 c21 -12 41 -23 46 -23 13 0 52 -39 52 -52 0 -7 -5 -5 -12 4 -18 21 -60 48
-75 48 -20 0 -15 -24 7 -38 12 -7 17 -18 13 -28 -3 -9 0 -20 7 -24 15 -9 50
-1 50 11 0 5 4 9 10 9 16 0 50 -33 50 -49 0 -13 -2 -13 -16 1 -24 23 -61 4
-70 -35 -5 -23 -2 -34 12 -45 18 -14 18 -14 1 -8 -10 3 -23 6 -28 6 -5 0 -9 6
-9 14 0 8 -15 16 -36 19 -51 9 -77 33 -61 59 10 17 9 22 -10 35 -41 27 -25 56
17 33 28 -15 32 3 8 33 -21 26 -22 26 -50 9 -36 -21 -46 -56 -24 -81 9 -10 16
-26 16 -37 1 -21 33 -64 48 -64 6 0 9 -15 8 -32 -1 -33 3 -36 36 -23 18 7 22
-2 34 -70 l7 -39 -43 37 c-42 35 -68 43 -62 18 4 -20 -14 -11 -28 13 -7 14
-10 32 -7 41 5 13 3 14 -13 5 -11 -6 -22 -23 -26 -38 -12 -55 -14 -57 -33 -26
-10 16 -15 31 -11 34 4 3 10 18 14 34 6 23 4 27 -8 23 -12 -5 -16 0 -16 21 0
16 5 33 12 40 8 8 8 12 1 12 -17 0 -31 -23 -36 -60 l-4 -35 -1 35 c-1 20 7 54
18 75 12 23 18 50 15 62 -4 16 2 27 21 40 14 10 39 30 55 46 34 31 59 29 121
-10z m-825 -35 c45 -23 46 -46 0 -29 -17 7 -27 7 -29 0 -2 -5 -16 4 -33 21
-28 30 -29 30 -5 30 12 0 42 -10 67 -22z m-109 -2 c-10 -7 -18 -19 -18 -25 0
-7 -4 -9 -10 -6 -17 10 -11 25 13 35 31 12 35 11 15 -4z m2524 -6 c16 -15 21
-31 20 -67 0 -47 -2 -50 -84 -125 -45 -43 -87 -77 -93 -77 -5 -1 -4 3 3 8 11
7 18 24 21 53 1 4 16 15 34 24 49 25 107 85 107 111 0 25 -19 30 -38 11 -6 -6
-15 -8 -19 -4 -4 4 -1 12 7 16 37 23 44 29 37 36 -11 11 -57 -14 -79 -41 -11
-14 -24 -25 -30 -25 -6 0 -4 8 5 18 15 17 15 18 -8 18 -13 0 -22 -3 -20 -6 2
-3 0 -12 -5 -20 -7 -12 -12 -11 -29 4 -11 10 -27 16 -36 13 -29 -12 -15 2 28
28 47 27 68 32 65 14 -2 -6 3 -14 11 -17 10 -3 12 0 8 13 -4 9 -5 21 -1 26 10
17 74 10 96 -11z m-1982 -43 c0 -18 -2 -19 -10 -7 -13 20 -13 43 0 35 6 -3 10
-16 10 -28z m-355 3 c3 -6 -1 -7 -9 -4 -18 7 -21 14 -7 14 6 0 13 -4 16 -10z
m-190 -10 c3 -5 1 -10 -4 -10 -6 0 -11 5 -11 10 0 6 2 10 4 10 3 0 8 -4 11
-10z m590 -78 c-27 -79 -55 -185 -55 -216 0 -52 21 -96 47 -96 20 0 22 -2 11
-25 -15 -33 -50 -33 -68 0 -14 27 -9 162 8 205 5 14 18 52 27 85 27 90 38 120
43 107 2 -7 -4 -34 -13 -60z m-505 -34 c23 -28 28 -40 16 -35 -35 14 -75 52
-70 68 2 9 -2 22 -11 29 -8 7 -15 18 -15 24 0 11 6 4 80 -86z m2375 82 c-3 -5
-11 -10 -16 -10 -6 0 -7 5 -4 10 3 6 11 10 16 10 6 0 7 -4 4 -10z m-2440 -109
c55 -41 145 -124 145 -133 0 -5 -20 -21 -45 -36 -25 -15 -45 -29 -45 -32 0 -3
15 -22 33 -43 45 -54 89 -59 142 -18 22 17 51 40 64 52 l24 23 -7 -95 c-10
-135 -31 -225 -79 -344 -35 -87 -107 -214 -163 -285 -43 -54 -124 -140 -133
-140 -3 0 -6 60 -6 132 l0 133 -33 49 c-18 26 -31 51 -28 53 3 3 24 -10 47
-28 54 -43 100 -44 167 -2 62 38 72 60 72 171 0 92 0 92 25 92 14 0 28 -7 31
-15 10 -24 34 -17 34 10 0 69 -60 126 -111 106 -25 -9 -89 -74 -89 -90 0 -30
-74 -6 -122 38 -19 18 -18 19 17 40 20 11 46 23 58 26 31 8 77 44 56 45 -27 0
-113 47 -140 77 -14 15 -36 43 -49 62 -23 33 -23 34 -5 47 10 8 23 14 27 14 5
0 -2 15 -16 33 -31 41 -33 81 -5 126 l20 34 42 -40 c23 -22 56 -50 72 -62z
m-255 -4 c-1 -50 -1 -51 -15 -27 -15 26 -20 72 -9 83 15 15 24 -7 24 -56z
m2867 -36 c4 -34 1 -57 -12 -80 -18 -36 -14 -61 10 -61 21 0 20 -3 -24 -79
-40 -68 -70 -91 -116 -91 -14 0 -25 -4 -25 -9 0 -16 70 -71 90 -71 29 0 24
-18 -15 -57 -30 -30 -40 -34 -77 -31 -38 3 -43 6 -50 34 -12 49 -60 94 -98 94
-48 0 -90 -49 -90 -105 0 -53 22 -77 42 -46 25 41 35 24 40 -66 7 -136 50
-195 151 -209 l47 -7 0 -40 c0 -22 6 -48 14 -56 15 -18 29 -191 16 -191 -13 0
-150 152 -150 166 0 7 -3 14 -8 16 -8 3 -82 113 -82 121 0 3 -15 38 -34 79
-43 95 -44 97 -72 208 -22 84 -45 328 -28 292 3 -6 30 -28 60 -48 49 -33 60
-36 105 -32 37 4 58 12 77 31 l26 27 -38 39 c-21 22 -37 43 -35 49 2 5 45 43
94 84 50 42 103 90 119 108 l29 33 14 -27 c8 -15 17 -48 20 -75z m-1477 25 c0
-15 -7 -26 -20 -29 -18 -5 -19 -3 -4 24 18 35 24 37 24 5z m-1010 -16 c10 -19
10 -20 -9 -8 -11 6 -17 16 -15 20 8 12 12 10 24 -12z m2615 -46 c-9 -51 -28
-43 -20 9 4 23 10 47 13 52 10 16 15 -23 7 -61z m-2045 43 c0 -8 -9 -22 -20
-32 -23 -21 -25 -16 -8 20 12 27 28 34 28 12z m367 -72 c-9 -7 -14 -14 -11
-17 3 -3 -6 -8 -20 -12 -13 -3 -27 -14 -29 -24 -4 -16 -5 -16 -6 1 0 10 6 20
14 23 8 4 15 12 15 20 0 8 7 14 15 14 9 0 19 8 22 17 5 13 8 14 11 3 3 -7 -3
-19 -11 -25z m1253 32 c0 -2 -10 -12 -22 -23 l-23 -19 19 23 c18 21 26 27 26
19z m-1582 -57 c28 -37 40 -38 53 -2 l11 27 23 -27 c13 -16 29 -28 35 -28 5 0
10 12 11 28 l0 27 32 -39 c18 -22 51 -59 75 -83 23 -24 38 -43 33 -43 -12 0
-90 28 -129 46 -26 12 -36 13 -48 4 -11 -10 -19 -9 -39 4 -29 19 -35 20 -35 5
0 -6 10 -19 22 -29 l22 -18 -48 -53 c-31 -34 -46 -59 -43 -71 3 -11 0 -18 -10
-18 -10 0 -13 -5 -8 -17 4 -10 9 -33 12 -50 5 -29 3 -33 -16 -33 -16 0 -21 -6
-21 -25 0 -25 -1 -25 -25 -9 -18 12 -39 15 -70 12 -39 -5 -46 -2 -60 18 -15
23 -15 24 15 24 23 0 33 6 40 25 5 13 15 23 22 21 7 -1 10 -1 6 1 -17 10 -8
43 11 43 22 0 37 16 21 22 -6 2 5 19 24 39 26 26 33 41 29 57 -3 12 -9 22 -13
22 -11 0 -27 -22 -32 -45 -5 -19 -5 -19 -13 -1 -5 11 -3 26 4 39 12 18 11 19
-8 14 -20 -5 -20 -4 3 24 13 16 27 42 31 59 4 16 13 30 21 30 8 0 17 7 20 15
9 22 18 19 42 -15z m-548 -39 c19 -36 12 -70 -15 -77 -25 -6 -55 9 -55 28 0
12 42 68 52 68 4 0 12 -9 18 -19z m2148 -45 c24 -41 14 -56 -35 -56 -27 0 -33
4 -33 22 0 17 34 68 46 68 1 0 11 -15 22 -34z m-853 -46 c3 -5 -9 -13 -27 -18
-38 -10 -43 -9 -35 13 7 16 52 21 62 5z m-587 -19 c31 -16 96 -34 162 -47 48
-9 56 -12 30 -13 -36 -1 -61 5 -163 35 l-58 17 -44 -43 c-44 -43 -54 -66 -37
-85 12 -13 40 -109 58 -192 15 -71 18 -249 6 -317 -4 -22 -7 27 -8 120 -1 167
-21 283 -65 383 l-19 43 45 47 c25 25 45 49 45 54 0 10 26 9 48 -2z m207 -1
c8 -13 -15 -13 -35 0 -12 8 -11 10 7 10 12 0 25 -4 28 -10z m480 -20 c3 -6 -1
-7 -9 -4 -18 7 -21 14 -7 14 6 0 13 -4 16 -10z m-1980 -26 c9 -14 14 -28 11
-31 -8 -9 -46 27 -46 44 0 21 16 15 35 -13z m1925 11 c-14 -8 -34 -14 -45 -14
-15 1 -13 4 10 14 40 19 67 18 35 0z m-1770 -46 c20 -23 35 -30 70 -32 37 -2
55 -10 97 -45 37 -32 49 -48 46 -63 -4 -15 0 -19 23 -19 38 0 45 6 79 65 16
28 36 55 44 62 19 15 67 17 76 3 3 -5 -3 -10 -14 -10 -55 0 -113 -96 -92 -152
14 -37 29 -35 34 5 3 25 4 22 5 -15 1 -26 -2 -58 -7 -71 -13 -34 -64 -68 -112
-74 -33 -5 -46 -1 -77 24 -20 16 -52 35 -69 42 -18 8 -33 20 -33 27 0 10 11 7
38 -11 46 -31 147 -41 147 -15 0 8 -10 16 -22 18 -15 2 -38 25 -62 60 -78 113
-117 147 -191 165 -22 6 -50 50 -50 81 0 12 44 -16 70 -45z m2195 15 c-5 -28
-3 -34 7 -28 27 15 47 37 42 45 -3 5 -1 9 5 9 19 0 23 -21 7 -39 -21 -23 -20
-31 3 -31 31 0 32 -15 3 -41 -23 -20 -24 -24 -9 -27 21 -4 23 -22 2 -22 -8 0
-15 -5 -15 -10 0 -6 -8 -5 -20 2 -24 16 -25 27 -3 43 15 11 15 15 4 29 -7 9
-22 16 -31 16 -10 0 -20 5 -22 11 -3 8 -8 7 -19 -2 -8 -8 -21 -15 -29 -17 -8
-2 -18 -9 -22 -15 -6 -9 -8 -8 -8 1 0 8 -6 12 -12 9 -7 -2 -12 -15 -10 -28 l4
-24 -22 21 c-16 15 -20 27 -15 47 7 27 30 37 37 15 2 -6 10 -8 17 -4 7 5 10
14 7 22 -3 7 4 18 14 24 17 9 20 7 20 -10 0 -26 18 -17 30 16 5 13 17 24 26
24 13 0 15 -7 9 -36z m-1028 12 c131 -50 359 -71 479 -43 130 30 157 31 183 4
22 -24 22 -25 6 -78 -9 -30 -20 -70 -26 -89 -13 -50 -29 -194 -29 -265 0 -58
-1 -61 -30 -72 -41 -15 -39 -36 3 -28 l32 6 1 -49 c1 -27 11 -71 23 -98 l21
-48 -31 -32 -32 -33 -37 19 c-50 25 -175 40 -342 40 -113 0 -147 -4 -190 -20
l-52 -20 -26 23 c-14 12 -29 25 -34 28 -4 4 1 36 13 71 45 134 40 405 -9 535
-34 90 -34 95 -1 131 35 37 30 36 78 18z m486 -3 c-7 -2 -19 -2 -25 0 -7 3 -2
5 12 5 14 0 19 -2 13 -5z m242 -41 c6 -15 -34 -156 -43 -148 -2 2 5 34 16 70
l20 67 -26 31 -27 32 27 -18 c14 -9 29 -25 33 -34z m-305 26 c0 -5 -40 -8 -90
-8 -49 0 -90 4 -90 8 0 5 41 8 90 8 50 0 90 -4 90 -8z m1580 -27 c-12 -23 -30
-28 -30 -9 0 16 34 52 38 39 2 -5 -2 -19 -8 -30z m-152 -14 c-9 -29 -20 -42
-47 -53 -161 -71 -181 -83 -216 -139 -20 -30 -44 -59 -55 -65 -30 -16 -24 -39
16 -56 38 -16 68 -12 97 14 31 28 17 -2 -18 -38 -19 -19 -35 -38 -35 -42 0 -4
-23 -8 -52 -8 -46 0 -54 4 -88 39 -46 48 -62 121 -35 151 15 17 15 21 0 53
-15 33 -50 57 -80 57 -20 0 -19 13 4 41 17 21 21 22 43 11 25 -14 52 -59 62
-103 9 -40 40 -74 61 -66 14 6 15 10 5 22 -7 8 -11 15 -9 16 2 0 21 3 43 5 43
5 74 25 104 67 14 20 41 36 87 52 45 16 76 34 93 55 14 16 27 29 28 27 2 -2
-2 -20 -8 -40z m-1024 -65 c-14 -2 -31 -21 -48 -53 -15 -27 -34 -49 -42 -49
-9 0 -13 6 -10 13 2 6 12 35 21 62 20 64 24 70 60 82 29 9 30 8 35 -21 4 -26
1 -32 -16 -34z m-979 -130 c-2 -2 -13 1 -24 8 -22 11 -28 30 -11 30 6 0 10 15
11 33 0 28 2 26 14 -18 7 -27 12 -51 10 -53z m1095 78 c-6 -11 -13 -20 -15
-20 -3 0 -5 9 -5 20 0 11 7 20 15 20 13 0 14 -4 5 -20z m-50 -22 c0 -4 -9 -9
-19 -13 -22 -7 -40 -67 -22 -73 6 -2 11 -10 11 -18 0 -22 -54 -14 -58 8 -2 13
1 16 12 12 11 -4 16 -1 16 10 0 9 -7 16 -15 16 -9 0 -15 10 -15 26 0 20 4 24
19 19 22 -7 37 10 19 21 -9 6 -5 10 12 14 23 6 39 -4 40 -22z m129 18 c9 -10
8 -16 -3 -25 -18 -15 -9 -44 11 -37 8 3 11 1 8 -4 -11 -17 -43 -11 -59 11 -13
19 -13 24 1 45 18 28 26 30 42 10z m-339 -56 c0 -11 -4 -20 -9 -20 -5 0 -7 9
-4 20 3 11 7 20 9 20 2 0 4 -9 4 -20z m258 -22 c-5 -15 -58 -24 -58 -9 0 9 20
17 48 20 8 0 12 -5 10 -11z m789 -54 c-41 -35 -58 -29 -19 7 19 17 37 27 40
24 4 -4 -6 -18 -21 -31z m-2014 12 c4 -9 -3 -13 -24 -12 -30 1 -38 11 -16 19
22 9 35 7 40 -7z m147 4 c0 -5 -4 -10 -10 -10 -5 0 -10 5 -10 10 0 6 5 10 10
10 6 0 10 -4 10 -10z m1110 -18 c0 -21 -69 -45 -106 -36 -37 9 -11 34 37 34
21 0 41 5 44 10 10 16 25 12 25 -8z m46 -38 c-32 -48 -41 -25 -13 34 9 20 12
21 20 7 6 -11 3 -24 -7 -41z m-359 14 c-3 -7 -5 -2 -5 12 0 14 2 19 5 13 2 -7
2 -19 0 -25z m-1941 -23 c3 -20 10 -38 15 -41 5 -3 9 -12 9 -20 0 -8 13 -43
29 -78 17 -35 40 -91 52 -126 l21 -62 -21 -22 c-32 -32 -125 -30 -152 3 -38
47 -15 116 31 91 32 -17 50 3 50 56 0 51 -16 91 -40 99 -13 4 -16 19 -17 75
-1 72 11 86 23 25z m3224 11 c0 -7 -8 -20 -17 -27 -15 -12 -16 -12 -10 4 4 10
7 23 7 28 0 5 5 9 10 9 6 0 10 -6 10 -14z m-3494 -42 c60 -36 94 -78 94 -119
0 -31 21 -65 39 -65 4 0 17 20 28 44 17 34 28 45 54 50 43 8 59 -7 59 -60 0
-41 -2 -44 -23 -39 -40 10 -72 -25 -72 -79 0 -38 5 -51 34 -80 32 -33 40 -36
92 -36 41 0 58 4 63 15 3 8 10 15 15 15 16 0 -7 -62 -29 -77 -11 -8 -19 -22
-18 -31 9 -54 -139 3 -234 91 -47 43 -58 59 -58 84 0 43 -12 47 -43 15 -25
-26 -76 -40 -98 -27 -5 4 -3 19 6 36 12 22 22 29 46 29 37 0 69 16 69 34 0 8
-15 26 -32 41 -18 15 -38 37 -45 49 -15 26 -17 136 -2 136 6 0 30 -12 55 -26z
m2201 -106 c-2 -13 -4 -3 -4 22 0 25 2 35 4 23 2 -13 2 -33 0 -45z m-897 37
c52 -2 101 -4 108 -4 7 -1 12 -15 12 -38 0 -43 -13 -72 -24 -54 -4 7 -42 11
-94 11 -48 1 -107 5 -132 9 -67 13 -140 -1 -165 -33 -11 -14 -26 -26 -32 -26
-6 0 -19 -7 -27 -15 -13 -13 -14 -33 -9 -110 5 -78 3 -95 -8 -95 -19 0 -64 42
-95 90 l-25 38 59 88 c32 49 67 104 76 122 l17 34 122 -7 c67 -4 165 -8 217
-10z m2160 -10 c0 -8 5 -24 12 -34 10 -16 7 -23 -20 -46 -30 -25 -32 -31 -32
-89 0 -35 3 -66 6 -69 4 -4 20 5 36 18 35 30 55 32 63 6 11 -35 -6 -67 -48
-94 -90 -59 -156 -19 -149 88 4 57 16 87 53 136 22 30 45 64 50 77 10 25 29
30 29 7z m-1130 -14 c0 -6 -8 -9 -17 -9 -10 1 -28 -2 -40 -6 -17 -6 -23 -3
-23 8 0 12 10 16 40 16 22 0 40 -4 40 -9z m308 -10 c61 -1 102 -5 102 -11 0
-5 -16 -10 -35 -10 -19 0 -35 -3 -35 -8 0 -4 -10 -12 -22 -17 -20 -9 -24 -20
-28 -77 -5 -72 -12 -87 -33 -70 -8 7 -17 9 -20 5 -12 -11 -19 27 -8 41 14 17
-11 82 -45 113 -30 28 -31 44 -1 39 12 -3 68 -5 125 -5z m-154 -56 c29 -26 36
-39 30 -52 -4 -10 -8 -30 -8 -45 -1 -16 -6 -28 -13 -28 -6 0 -18 -9 -26 -20
-15 -21 -29 -17 -20 6 4 10 -3 14 -21 14 -14 0 -26 -5 -26 -11 0 -14 -26 -39
-40 -39 -7 0 -9 7 -6 16 3 8 2 12 -4 9 -16 -10 -12 7 6 27 14 15 15 20 4 33
-10 12 -10 19 -2 27 7 7 12 21 12 31 0 15 3 17 13 9 7 -6 22 -11 32 -11 11 1
30 -2 43 -6 18 -6 22 -4 22 13 0 28 -34 45 -81 40 -27 -2 -39 0 -39 9 0 9 15
13 43 13 35 0 50 -6 81 -35z m-1324 -16 c27 -6 50 -15 50 -20 0 -5 -30 -9 -67
-9 -38 0 -78 -3 -90 -6 -34 -9 -27 11 10 30 39 19 34 19 97 5z m1625 1 c4 -6
10 -8 14 -5 5 2 27 -18 50 -45 44 -52 71 -127 71 -197 0 -52 -7 -38 -25 52
-18 90 -51 139 -78 116 -12 -9 -16 -9 -20 1 -4 10 -7 10 -15 -1 -7 -10 -12 -6
-23 17 -7 16 -18 28 -24 25 -15 -5 -39 23 -30 37 8 13 72 13 80 0z m-2991 -70
c27 -96 110 -254 130 -247 6 2 16 26 22 53 11 48 43 114 55 114 4 0 7 -28 7
-62 0 -36 9 -91 21 -128 22 -70 104 -220 155 -285 17 -21 26 -36 19 -32 -15
10 -28 -12 -15 -25 8 -8 0 -24 -26 -54 -29 -35 -40 -42 -59 -38 -15 4 -23 2
-23 -6 0 -18 100 -110 119 -110 28 0 85 48 102 85 l16 35 42 -36 c23 -20 39
-39 36 -42 -3 -3 -19 8 -36 24 -30 28 -32 28 -43 10 -22 -37 -68 -86 -81 -86
-26 0 -25 -19 2 -44 31 -29 53 -34 53 -12 0 8 5 18 11 22 8 5 10 -2 6 -22 -3
-16 1 -40 8 -55 13 -24 75 -79 90 -79 4 0 16 -11 27 -25 11 -14 26 -25 34 -25
8 0 25 -12 38 -27 17 -19 33 -27 59 -27 30 -1 37 -5 37 -21 0 -36 28 -65 63
-65 51 1 92 44 106 112 l6 27 65 -52 c67 -55 130 -128 130 -153 0 -25 -14 -14
-48 36 -40 62 -115 121 -120 95 -3 -11 20 -41 57 -78 34 -33 61 -63 61 -67 0
-3 -20 -12 -45 -19 -24 -7 -49 -19 -56 -27 -17 -21 -24 -18 -54 30 -28 44 -69
75 -82 63 -3 -4 5 -20 19 -35 28 -30 68 -87 68 -96 0 -17 -20 -1 -48 37 -17
24 -52 59 -77 78 -215 159 -571 484 -623 569 -9 14 -24 34 -33 45 -32 37 -143
250 -177 340 -20 53 -42 177 -48 275 -5 85 -5 93 9 75 8 -11 17 -31 21 -45z
m1524 32 c2 -12 -1 -22 -7 -22 -6 0 -11 5 -11 11 0 6 -9 8 -21 4 -14 -5 -25
-2 -30 6 -6 10 -1 16 19 20 38 9 47 6 50 -19z m889 -19 c-3 -10 -5 -4 -5 12 0
17 2 24 5 18 2 -7 2 -21 0 -30z m511 -29 c2 -27 7 -53 12 -58 16 -16 -1 -36
-26 -30 -22 6 -24 3 -24 -34 0 -23 -4 -44 -10 -47 -5 -3 -10 1 -10 9 0 9 -8
16 -19 16 -10 0 -21 9 -24 20 -3 11 -13 20 -22 20 -13 0 -15 -10 -13 -67 3
-57 6 -68 22 -71 10 -2 22 2 27 10 6 9 9 7 9 -9 0 -16 -6 -23 -20 -23 -11 0
-20 -6 -20 -13 0 -7 9 -18 20 -25 17 -10 20 -22 18 -75 0 -34 -3 -47 -5 -29
-4 32 -29 45 -38 20 -6 -15 -25 -135 -32 -195 -3 -24 -9 -41 -13 -38 -5 3 -11
1 -15 -5 -4 -6 -11 -8 -16 -4 -5 3 -16 0 -24 -6 -12 -10 -15 -9 -15 3 0 8 -3
24 -6 34 -4 12 -3 14 3 5 12 -17 57 -9 61 11 2 8 -3 19 -10 23 -21 13 -92 14
-100 1 -5 -8 -9 -6 -13 6 -5 12 -12 14 -24 8 -9 -5 -29 -7 -44 -4 -23 5 -27
10 -28 42 -2 70 -13 96 -37 94 -20 -3 -22 2 -22 46 0 33 6 55 17 66 15 16 17
15 32 -9 22 -36 42 -29 55 18 l11 40 18 -27 c20 -31 47 -26 47 8 0 28 -47 40
-87 22 -21 -9 -27 -9 -31 1 -2 6 -14 12 -27 12 -13 0 -26 4 -30 10 -9 14 -32
1 -38 -21 -3 -10 -11 -19 -17 -19 -10 0 5 25 46 79 2 2 12 -6 22 -19 16 -20
19 -21 31 -6 13 15 15 15 31 1 17 -15 19 -15 33 5 l15 22 11 -21 c15 -27 41
-27 48 -1 5 20 23 28 23 10 0 -16 30 -12 37 6 5 13 9 12 28 -6 13 -12 25 -18
28 -13 10 19 5 89 -8 117 -18 35 -14 42 13 27 12 -6 35 -11 52 -11 33 0 50 26
50 79 0 29 18 53 35 48 5 -2 11 -26 13 -53z m-1342 -44 c-40 -81 -40 -85 24
-144 23 -21 39 -40 37 -42 -6 -6 -178 83 -197 102 -18 18 -7 27 47 43 44 12
83 44 83 68 0 19 33 68 38 55 2 -6 -13 -43 -32 -82z m937 60 c4 -4 0 -21 -10
-37 l-17 -31 -13 25 c-7 14 -13 34 -13 45 0 15 5 18 23 13 12 -4 26 -11 30
-15z m-1133 -11 c0 -5 18 -6 40 -3 27 5 40 3 40 -5 0 -6 10 -15 22 -20 19 -7
12 -12 -48 -42 -76 -37 -126 -47 -117 -21 4 10 1 13 -8 10 -8 -3 -14 -11 -14
-20 0 -8 -8 -26 -18 -41 -9 -14 -17 -34 -16 -44 0 -15 2 -14 9 4 8 19 13 21
42 12 38 -11 68 -4 68 17 0 21 12 17 43 -15 15 -16 40 -31 55 -34 15 -3 38
-17 52 -30 14 -13 42 -27 62 -31 21 -4 49 -20 67 -38 18 -18 42 -33 54 -33 13
0 22 -6 22 -15 1 -22 15 -41 26 -35 5 3 6 -1 3 -9 -3 -9 -1 -16 6 -16 7 0 9
-9 6 -22 -3 -13 -3 -17 0 -10 9 20 22 14 38 -16 13 -26 13 -31 -1 -44 -18 -19
-8 -42 14 -34 13 5 15 -2 11 -48 -3 -40 -1 -57 9 -60 8 -3 13 -21 13 -46 0
-23 4 -39 9 -35 5 3 12 1 16 -5 3 -5 0 -11 -7 -11 -7 -1 -23 -3 -35 -4 -13 -1
-28 4 -34 11 -20 24 -46 16 -62 -19 -9 -18 -27 -43 -40 -56 -25 -22 -26 -22
-53 -5 -27 18 -27 18 -17 0 8 -14 6 -23 -8 -37 -11 -11 -24 -19 -30 -19 -7 0
-17 -7 -24 -16 -10 -14 -15 -14 -34 -4 -22 11 -22 12 -5 31 9 10 25 19 34 19
22 0 33 15 49 66 12 38 8 81 -8 94 -25 20 -70 83 -66 90 3 6 0 7 -8 4 -10 -3
-20 6 -30 25 -18 35 -10 40 20 12 12 -11 23 -17 27 -14 3 3 -6 14 -19 25 -14
11 -25 26 -25 35 0 13 -3 13 -16 2 -12 -10 -23 -10 -47 -2 -18 6 -47 14 -64
18 -18 4 -33 11 -33 16 0 17 -29 9 -43 -11 -8 -11 -16 -18 -19 -15 -3 3 -32
-24 -64 -60 -38 -42 -67 -65 -81 -65 -12 0 -23 -5 -25 -11 -5 -16 -58 -21 -58
-6 0 7 25 44 55 84 37 49 55 83 58 107 5 46 14 54 31 30 14 -18 15 -18 22 -1
5 13 -3 28 -26 52 -20 20 -27 34 -19 37 9 3 9 12 0 40 -8 25 -9 43 -2 56 6 11
6 24 0 33 -9 14 -13 129 -5 129 3 0 16 -4 29 -9 20 -8 27 -6 31 5 3 9 4 20 0
25 -3 5 12 9 34 9 37 0 82 27 82 50 0 5 7 7 15 4 8 -4 15 -10 15 -15z m-160
-9 c12 -8 9 -10 -13 -10 -16 0 -26 4 -22 10 8 12 16 12 35 0z m425 -29 c-4
-17 -10 -33 -14 -36 -5 -2 -3 13 2 35 13 46 22 46 12 1z m-684 -48 c41 -60 38
-57 45 -50 4 3 -4 22 -16 42 -37 60 -12 56 30 -5 33 -49 103 -120 112 -114 7
5 12 -10 9 -29 -1 -4 3 -16 9 -27 7 -13 7 -21 0 -25 -16 -10 -39 13 -34 33 4
19 -21 53 -54 71 -27 14 -30 -3 -7 -33 8 -11 15 -31 15 -44 0 -15 7 -26 20
-29 11 -3 21 -9 21 -14 1 -5 2 -13 3 -18 2 -15 16 -26 16 -13 0 7 4 12 9 12
12 0 22 -43 12 -53 -10 -10 -61 9 -61 23 0 6 -17 32 -39 58 -21 26 -47 71 -57
101 -25 71 -52 100 -90 94 -28 -4 -28 -4 -9 12 19 15 19 17 3 26 -26 14 -22
29 7 29 18 0 32 -12 56 -47z m3170 -184 c-21 -119 -57 -211 -137 -345 -64
-110 -118 -176 -240 -296 -140 -137 -202 -189 -284 -238 -88 -51 -270 -189
-278 -208 -4 -12 -7 -10 -14 8 -7 18 -4 26 12 37 28 19 25 28 -12 44 -35 14
-98 66 -98 80 0 5 10 8 23 6 16 -1 21 3 19 15 -2 10 3 18 11 18 17 0 87 -74
87 -94 0 -27 19 -27 55 0 38 28 41 47 9 52 -10 2 -40 24 -66 49 -45 44 -48 46
-77 33 -17 -7 -31 -19 -31 -26 0 -8 -9 -14 -20 -14 -21 0 -40 -15 -77 -64 -18
-22 -20 -32 -12 -47 15 -29 43 -25 35 6 -9 35 3 31 51 -18 70 -70 74 -75 62
-82 -5 -4 -14 -18 -20 -31 l-9 -25 -37 30 c-21 16 -50 33 -65 36 -21 5 -28 14
-30 38 l-4 32 -12 -25 c-11 -23 -12 -21 -8 18 8 78 103 166 421 387 136 94
222 168 316 270 35 39 66 72 70 75 15 14 60 81 82 121 31 59 52 191 44 275 -4
42 -3 63 4 59 5 -4 27 -43 48 -87 l38 -81 38 42 c40 43 50 58 87 131 l23 45 3
-86 c1 -47 -2 -110 -7 -140z m-1607 165 c-1 -29 -8 -52 -19 -63 -16 -15 -17
-15 -6 7 7 12 9 31 6 42 -5 16 9 60 18 60 2 0 2 -21 1 -46z m538 -58 c2 -31
-3 -51 -13 -62 -15 -14 -17 -9 -23 51 -4 36 -4 70 -1 76 12 19 35 -21 37 -65z
m-2796 43 c30 -34 129 -108 161 -120 15 -6 53 -12 82 -14 44 -2 59 -8 73 -26
11 -13 41 -51 69 -84 27 -33 99 -125 159 -205 170 -223 180 -235 200 -248 16
-10 32 -5 97 28 42 22 82 40 87 40 5 0 39 -28 75 -62 132 -125 207 -178 385
-268 159 -81 261 -176 321 -303 20 -41 22 -42 70 -41 36 0 51 5 59 19 6 10 37
53 69 96 51 69 68 84 164 141 130 77 158 92 203 113 115 53 236 138 337 237
l42 41 38 -18 c21 -10 52 -29 69 -42 17 -12 38 -23 46 -23 14 0 64 54 150 161
20 25 103 113 185 194 l148 149 55 1 c84 2 158 31 202 79 21 22 38 46 38 54 0
7 5 10 11 6 8 -4 9 -28 5 -72 -12 -115 -70 -205 -234 -364 -93 -90 -243 -209
-327 -258 -22 -13 -56 -37 -76 -54 -20 -17 -62 -49 -94 -71 -134 -94 -223
-212 -211 -280 4 -19 16 -41 27 -48 19 -14 19 -14 -2 -41 -11 -14 -26 -26 -32
-26 -7 0 -39 -14 -71 -30 -32 -17 -63 -30 -68 -30 -6 0 -24 -7 -41 -15 -111
-51 -313 -113 -397 -121 -36 -4 -75 -10 -88 -15 -34 -13 -295 -12 -377 1 -130
20 -300 62 -345 84 -25 12 -74 33 -110 46 -36 13 -86 36 -111 52 -25 15 -50
28 -54 28 -11 0 -134 93 -135 102 0 3 18 9 40 13 47 8 51 25 21 83 -40 76 -91
122 -360 319 -173 126 -376 321 -446 428 -100 152 -140 240 -151 333 -8 59 7
70 42 31z m2709 -52 c2 -37 0 -69 -5 -72 -6 -4 -10 0 -10 8 0 8 -12 26 -26 41
-15 14 -22 26 -17 26 5 0 18 16 28 35 11 19 21 33 22 31 2 -2 5 -33 8 -69z
m-1302 4 c15 -14 27 -28 27 -32 0 -4 -19 11 -42 32 -24 22 -46 39 -50 39 -5 0
-8 5 -8 12 0 11 15 0 73 -51z m927 38 c0 -6 -4 -8 -9 -5 -5 3 -12 -4 -16 -17
-6 -19 -8 -20 -12 -4 -3 10 1 24 7 32 13 15 30 11 30 -6z m60 17 c0 -3 -4 -8
-10 -11 -5 -3 -10 -1 -10 4 0 6 5 11 10 11 6 0 10 -2 10 -4z m25 -26 c-3 -5
-11 -10 -16 -10 -6 0 -7 5 -4 10 3 6 11 10 16 10 6 0 7 -4 4 -10z m-832 -37
c-7 -2 -19 -2 -25 0 -7 3 -2 5 12 5 14 0 19 -2 13 -5z m324 1 c-3 -3 -12 -4
-19 -1 -8 3 -5 6 6 6 11 1 17 -2 13 -5z m1833 -20 c0 -17 -22 -14 -28 4 -2 7
3 12 12 12 9 0 16 -7 16 -16z m-813 -14 c3 -11 12 -20 19 -20 8 0 14 -4 14
-10 0 -5 20 -28 45 -51 25 -23 45 -46 45 -51 0 -9 -77 -114 -104 -140 -7 -7
-15 -20 -18 -28 -3 -8 -8 50 -11 130 -3 80 -9 155 -13 168 -4 14 -2 22 6 22 6
0 14 -9 17 -20z m-1255 -10 l29 0 -2 -157 c-2 -87 -2 -286 -1 -442 1 -157 1
-286 -1 -287 -1 -2 -36 28 -77 66 -44 40 -105 84 -147 105 -40 20 -73 42 -73
50 0 7 13 18 30 25 16 7 45 30 64 50 29 32 37 36 47 24 13 -16 49 -19 49 -4 0
6 13 10 29 10 36 0 61 9 61 22 0 5 -13 22 -28 38 -26 25 -30 38 -35 112 -10
136 -60 247 -138 309 -52 41 -40 55 55 68 37 5 71 12 74 16 3 3 12 3 20 0 7
-3 27 -5 44 -5z m955 -52 c-3 -20 -4 -21 -11 -5 -5 9 -5 29 0 45 7 25 8 26 11
5 3 -13 3 -33 0 -45z m-824 2 c-1 -19 -3 -54 -6 -77 -2 -23 -1 -124 4 -225 4
-101 10 -273 14 -383 4 -110 10 -204 15 -208 4 -5 17 4 29 20 26 32 114 94
186 130 28 14 57 32 67 40 14 13 20 12 48 -2 26 -14 38 -15 57 -6 21 9 23 14
13 26 -13 15 -7 45 8 45 4 0 18 -9 30 -20 33 -31 49 -25 56 20 3 22 11 40 16
40 6 0 10 -4 10 -10 0 -5 9 -10 19 -10 11 0 22 -6 25 -12 3 -7 4 -4 1 7 -6 26
13 50 48 59 20 5 27 12 27 31 0 27 9 32 27 14 13 -13 43 14 43 39 1 16 2 16
13 1 11 -15 15 -15 42 6 l29 24 -26 32 -25 33 25 21 25 22 70 -49 c76 -52 107
-60 107 -28 0 11 5 20 10 20 6 0 10 -8 10 -19 0 -10 7 -24 15 -31 13 -11 19
-9 33 11 22 31 40 78 41 109 1 26 66 100 88 100 15 0 17 -26 3 -35 -5 -3 -10
-10 -10 -15 0 -5 11 2 25 16 14 14 25 28 25 31 0 11 35 32 53 33 25 0 22 -6
-30 -58 -67 -66 -218 -242 -243 -281 -7 -12 -20 -7 -70 22 -96 58 -101 58
-173 -4 -34 -29 -64 -56 -67 -59 -13 -13 -99 -80 -104 -80 -3 0 -24 -13 -48
-29 -24 -16 -70 -42 -103 -58 -106 -53 -279 -164 -328 -212 -27 -25 -64 -72
-83 -103 -30 -49 -40 -58 -64 -58 -24 0 -32 8 -55 53 -15 28 -37 66 -49 83
-39 57 -171 157 -283 213 -170 86 -221 120 -318 211 -49 47 -104 93 -122 103
l-32 17 -77 -41 -78 -41 -19 24 c-53 68 -148 186 -189 236 -49 58 -48 85 1 38
32 -30 64 -37 39 -8 -24 27 -88 121 -88 129 0 8 4 2 93 -117 35 -47 82 -102
105 -122 22 -20 38 -39 35 -42 -3 -3 2 -17 11 -31 19 -28 51 -33 60 -9 5 13 9
14 21 4 17 -14 35 -5 35 16 0 10 6 13 19 9 13 -4 26 3 43 23 22 26 26 28 34
13 7 -11 6 -24 -3 -41 -12 -23 -11 -27 13 -47 14 -13 32 -23 41 -23 9 0 21 -7
27 -16 9 -12 17 -13 40 -4 19 7 32 7 35 1 4 -5 30 -21 58 -36 61 -30 68 -38
48 -55 -22 -18 -19 -77 3 -89 13 -7 22 -7 30 1 8 8 13 7 18 -5 7 -20 42 -23
50 -4 5 13 64 20 74 8 3 -3 28 -17 55 -30 52 -25 102 -62 169 -126 62 -58 83
-70 102 -54 13 11 15 52 10 343 -2 182 -5 338 -6 346 -1 8 1 60 4 115 3 55 6
104 6 108 0 5 15 7 33 5 30 -3 32 -5 30 -38z m101 34 c13 -5 15 -23 9 -128 -5
-103 -3 -128 11 -156 9 -18 16 -41 16 -50 0 -10 7 -20 15 -24 9 -3 15 -18 15
-39 0 -18 6 -56 14 -85 7 -29 9 -52 4 -52 -5 0 -4 -9 2 -19 5 -11 10 -33 10
-50 0 -27 35 -111 47 -111 2 0 9 14 15 30 7 23 15 29 28 25 13 -4 19 2 24 26
3 17 6 44 6 60 0 33 15 46 26 21 6 -13 9 -9 13 18 4 24 11 35 23 35 24 0 31
10 39 58 l6 42 2 -47 c0 -26 6 -50 11 -53 16 -10 12 -75 -4 -75 -8 0 -17 -7
-20 -16 -4 -9 -13 -14 -21 -10 -21 8 -54 -22 -71 -64 -10 -26 -27 -41 -62 -58
-72 -36 -120 -66 -162 -103 l-37 -34 -7 299 c-3 165 -6 359 -6 433 0 124 1
133 19 133 11 0 26 -3 35 -6z m92 -56 c-20 -115 -32 -168 -38 -163 -6 6 0 160
7 183 2 6 12 12 21 12 13 0 15 -7 10 -32z m39 -45 c-3 -19 -9 -33 -12 -30 -3
3 -2 25 2 49 5 24 10 37 12 30 3 -7 2 -29 -2 -49z m644 -40 c0 -23 -3 -45 -9
-48 -6 -4 -10 22 -9 72 1 57 3 70 9 48 4 -16 8 -49 9 -72z m-582 55 c-3 -7 -5
-2 -5 12 0 14 2 19 5 13 2 -7 2 -19 0 -25z m761 -65 c-1 -66 -3 -79 -5 -40 -4
64 -27 80 -36 25 -16 -101 -20 -118 -28 -118 -13 0 -11 197 1 205 6 3 10 -1
10 -9 0 -29 20 -27 38 3 9 17 18 31 20 31 1 0 1 -44 0 -97z m-127 0 l-5 -78
-7 75 c-6 74 -4 94 9 86 4 -2 5 -39 3 -83z m-107 -11 c-9 -56 -20 -46 -16 13
3 29 8 43 13 38 6 -6 7 -28 3 -51z m-469 -14 c4 -24 14 -52 22 -64 9 -14 13
-41 11 -71 -3 -46 -4 -44 -31 62 -30 122 -31 129 -18 121 5 -4 12 -25 16 -48z
m-41 -42 c3 -17 12 -62 21 -101 15 -69 20 -133 10 -123 -3 3 -12 41 -20 84
-21 119 -37 174 -51 174 -7 0 -15 -6 -17 -12 -3 -7 -6 2 -6 20 l-1 33 29 -22
c17 -12 31 -34 35 -53z m-24 -105 c0 -36 -20 9 -25 54 l-5 50 15 -45 c8 -25
15 -52 15 -59z m-63 57 c-3 -7 -5 -2 -5 12 0 14 2 19 5 13 2 -7 2 -19 0 -25z
m830 -25 c-3 -10 -5 -4 -5 12 0 17 2 24 5 18 2 -7 2 -21 0 -30z m-247 -33 c6
0 17 15 25 33 l14 32 -5 -36 c-7 -43 10 -60 31 -33 14 18 14 18 15 -1 0 -21
17 -45 32 -45 4 0 8 7 8 15 0 8 5 15 10 15 6 0 10 -13 10 -30 0 -42 25 -39 49
8 19 34 20 35 21 11 0 -14 -10 -35 -24 -48 l-24 -23 -47 29 c-25 15 -56 34
-68 40 -24 14 -57 17 -57 6 0 -5 -16 -21 -35 -36 l-35 -28 0 56 c0 33 4 54 10
50 5 -3 17 6 27 21 l17 27 8 -32 c5 -17 13 -31 18 -31z m-1450 25 c19 -22 -30
-81 -78 -95 -52 -14 -56 -13 -86 17 l-27 26 32 33 c27 28 37 32 89 33 40 0 62
-4 70 -14z m877 -37 c-2 -13 -4 -5 -4 17 -1 22 1 32 4 23 2 -10 2 -28 0 -40z
m60 -155 c-2 -27 -3 -5 -3 47 0 52 1 74 3 48 2 -27 2 -69 0 -95z m-881 101 c1
-10 2 -27 3 -36 1 -9 9 -19 19 -22 13 -4 13 -4 -3 -3 -11 1 -25 -2 -31 -5 -6
-4 -38 -11 -72 -17 -50 -8 -67 -7 -92 5 -42 21 -37 34 13 34 31 1 55 9 92 35
54 37 69 39 71 9z m1109 -10 c11 -8 16 -14 12 -14 -18 0 -23 -2 -44 -16 -22
-14 -23 -13 -23 14 0 32 21 38 55 16z m62 -26 c-3 -7 -5 -2 -5 12 0 14 2 19 5
13 2 -7 2 -19 0 -25z m-327 2 c0 -5 -4 -10 -10 -10 -5 0 -10 5 -10 10 0 6 5
10 10 10 6 0 10 -4 10 -10z m-1880 -24 c0 -23 -45 -70 -58 -62 -9 5 -4 18 14
42 28 36 44 43 44 20z m2218 -56 c13 -1 10 -6 -11 -25 -33 -29 -45 -31 -54 -8
-4 11 1 22 15 31 12 8 23 26 24 41 1 22 2 21 5 -6 3 -23 10 -33 21 -33z
m-1088 30 c14 -25 3 -87 -16 -94 -15 -6 -109 38 -120 55 -8 14 20 11 34 -3 10
-10 20 -4 50 25 20 20 38 37 39 37 1 0 7 -9 13 -20z m-1005 -105 c0 -14 -6
-19 -20 -17 -26 5 -29 8 -21 27 8 23 41 14 41 -10z m90 -37 c0 -17 -13 -30
-49 -51 -34 -19 -52 -24 -57 -16 -11 19 2 49 21 49 30 0 52 29 45 59 l-6 26
23 -22 c12 -13 23 -33 23 -45z m86 -91 c-27 -13 -44 -30 -56 -55 l-16 -37 7
40 c3 21 12 52 20 67 8 15 14 34 14 43 0 12 8 10 35 -12 l35 -28 -39 -18z
m-123 -38 c4 -24 3 -24 -12 -4 -19 24 -20 38 -3 33 6 -3 13 -15 15 -29z m186
-24 c7 -19 30 -19 46 -1 6 8 18 12 26 9 21 -8 17 -20 -10 -27 -13 -3 -37 -20
-55 -38 -17 -17 -31 -26 -31 -19 0 8 -7 10 -19 6 -20 -6 -36 18 -25 38 25 44
57 59 68 32z m96 -75 c0 -11 -9 -34 -20 -52 -15 -25 -20 -28 -25 -16 -7 19 20
88 34 88 6 0 11 -9 11 -20z m207 -286 c54 -50 220 -153 273 -169 14 -4 49 -19
79 -32 87 -40 129 -53 257 -78 253 -51 365 -55 589 -20 112 17 192 36 255 60
19 7 98 36 175 65 157 58 262 116 257 143 -3 16 -1 16 33 0 40 -19 44 -28 15
-36 -22 -6 -28 -37 -6 -37 11 0 32 -57 24 -66 -2 -1 -22 11 -46 27 -47 32 -62
35 -80 17 -18 -18 -15 -38 6 -38 16 -1 89 -110 72 -110 -10 0 -110 80 -110 88
0 4 -4 13 -9 21 -7 11 -13 11 -32 1 -13 -7 -26 -16 -29 -21 -3 -4 -21 -11 -40
-16 -20 -5 -35 -16 -35 -24 0 -8 6 -13 13 -11 16 3 57 -81 49 -102 -13 -33
-38 -16 -65 44 -30 65 -55 77 -91 41 -12 -12 -27 -17 -45 -14 -44 9 -66 -20
-66 -87 0 -79 24 -104 108 -114 51 -6 65 -4 79 10 15 15 15 17 -4 33 -12 9
-23 33 -27 56 -3 22 -3 33 1 25 12 -30 57 -70 80 -70 13 0 35 11 48 24 15 15
26 20 28 13 3 -9 13 -8 33 3 32 17 45 50 20 50 -20 0 -21 19 -1 27 9 3 24 -2
34 -11 17 -15 25 -16 60 -5 22 7 49 20 60 31 11 10 25 18 31 18 5 0 11 15 11
33 1 23 3 26 6 10 5 -27 20 -29 51 -7 28 20 28 42 0 53 -22 8 -47 32 -63 60
-5 9 1 7 19 -4 21 -14 38 -16 84 -10 53 6 56 5 36 -9 -12 -9 -25 -32 -29 -53
-7 -40 -8 -41 -108 -109 -67 -45 -239 -135 -287 -149 -14 -4 -29 -11 -35 -15
-5 -4 -35 -13 -65 -20 -30 -7 -62 -17 -70 -21 -25 -14 -218 -56 -345 -76 -155
-23 -409 -24 -510 0 -138 31 -148 36 -72 32 37 -2 73 -7 80 -13 15 -12 129
-25 150 -16 9 3 19 21 23 39 5 26 0 42 -20 71 -28 42 -32 54 -16 54 6 0 10 -7
10 -16 0 -28 35 -11 38 19 3 27 2 27 -52 27 -33 0 -56 4 -56 11 0 6 -10 9 -22
7 -20 -3 -23 -8 -20 -40 4 -51 -14 -57 -21 -6 -6 46 -19 58 -62 58 -17 0 -48
9 -70 20 -22 11 -46 18 -55 15 -9 -3 -35 4 -58 15 l-43 21 -30 -31 c-40 -39
-48 -38 -42 8 5 34 2 39 -21 50 -42 19 -57 16 -51 -10 7 -29 -16 -110 -33
-116 -18 -6 -15 53 3 68 21 17 19 73 -2 92 -10 8 -33 23 -52 32 -38 18 -55 8
-47 -28 6 -23 -27 -91 -49 -99 -24 -10 -18 -31 16 -51 32 -19 44 -15 52 19 4
15 5 14 6 -7 1 -28 35 -68 58 -68 7 0 13 -4 13 -10 0 -5 -1 -10 -3 -10 -10 0
-134 64 -191 99 -36 23 -70 41 -75 41 -4 0 -24 12 -44 28 -20 15 -58 41 -86
57 -28 17 -53 36 -56 43 -2 7 0 10 5 7 28 -17 4 24 -41 72 -28 30 -49 56 -46
59 6 7 65 -23 91 -45 17 -15 20 -14 45 17 15 17 33 32 39 32 7 0 12 6 12 13 0
12 46 44 67 46 7 1 24 -11 40 -25z m-307 -54 c0 -11 19 -41 43 -67 38 -43 39
-45 10 -25 -53 37 -95 112 -63 112 6 0 10 -9 10 -20z m2050 -181 c4 -13 10
-47 14 -74 l6 -50 -20 55 c-31 81 -35 103 -19 98 7 -2 16 -15 19 -29z m215 -9
c3 -5 2 -10 -4 -10 -5 0 -13 5 -16 10 -3 6 -2 10 4 10 5 0 13 -4 16 -10z
m-1748 -35 c-4 -8 -11 -15 -17 -15 -6 0 -6 7 2 20 14 22 24 19 15 -5z m1371
-25 c7 -11 11 -20 9 -20 -2 0 -12 9 -22 20 -10 11 -14 20 -9 20 5 0 15 -9 22
-20z m-42 -63 c3 -11 2 -23 -4 -29 -14 -14 -42 18 -42 48 0 22 2 23 20 12 11
-7 23 -21 26 -31z m-1095 -46 c-10 -30 -22 -48 -25 -42 -10 16 2 70 22 101 24
37 26 6 3 -59z m69 -41 c-6 -22 -15 -38 -21 -34 -10 6 -8 16 14 89 11 36 12
38 15 13 2 -14 -2 -45 -8 -68z m137 43 c-3 -10 -8 -30 -11 -45 -4 -16 -11 -28
-16 -28 -17 0 -11 49 8 69 22 25 24 25 19 4z m147 -82 c22 -25 20 -51 -4 -51
-11 0 -20 5 -20 11 0 7 -7 17 -15 23 -12 9 -12 18 -2 55 l12 43 6 -31 c4 -18
14 -40 23 -50z m-452 57 c-18 -18 -15 -38 6 -39 9 0 12 -3 6 -5 -14 -6 -96 31
-88 39 4 3 19 3 35 0 18 -3 29 -1 29 6 0 6 5 11 12 11 9 0 9 -3 0 -12z m234
-55 c-10 -10 -19 5 -10 18 6 11 8 11 12 0 2 -7 1 -15 -2 -18z m104 -14 c0 -5
-4 -9 -10 -9 -5 0 -10 7 -10 16 0 8 5 12 10 9 6 -3 10 -10 10 -16z m-153 -35
c-3 -3 -12 -4 -19 -1 -8 3 -5 6 6 6 11 1 17 -2 13 -5z"/>
<path d="M4180 4740 c0 -5 5 -10 10 -10 6 0 10 5 10 10 0 6 -4 10 -10 10 -5 0
-10 -4 -10 -10z"/>
<path d="M4223 4695 c2 -17 0 -35 -4 -41 -5 -6 -3 -11 5 -11 9 0 12 11 10 35
-2 19 -6 37 -9 41 -4 3 -4 -8 -2 -24z"/>
<path d="M4199 4708 c-6 -20 -6 -39 0 -42 4 -3 7 6 7 20 0 20 -4 32 -7 22z"/>
<path d="M4076 4660 c8 -43 14 -51 14 -19 0 13 -5 31 -10 39 -7 11 -8 5 -4
-20z"/>
<path d="M4100 4596 c0 -14 5 -26 10 -26 6 0 10 9 10 19 0 11 -4 23 -10 26 -6
4 -10 -5 -10 -19z"/>
<path d="M4135 4543 c-14 -31 -16 -63 -5 -63 5 0 8 10 6 23 -2 12 1 28 7 35 5
7 8 15 5 18 -3 3 -9 -3 -13 -13z"/>
<path d="M4150 4521 c0 -6 4 -13 10 -16 6 -3 7 1 4 9 -7 18 -14 21 -14 7z"/>
<path d="M5090 4703 c1 -16 12 -41 26 -58 15 -16 23 -23 19 -15 -5 8 -15 23
-23 33 -16 18 -3 24 14 7 7 -7 11 -6 11 4 0 8 -4 13 -9 10 -8 -5 -12 9 -9 34
1 6 -5 12 -14 12 -10 0 -15 -9 -15 -27z"/>
<path d="M5094 4610 c2 -16 20 -14 24 2 3 10 2 10 -6 -1 -7 -9 -11 -10 -15 -2
-4 7 -5 8 -3 1z"/>
<path d="M5386 4277 c3 -10 9 -15 12 -12 3 3 0 11 -7 18 -10 9 -11 8 -5 -6z"/>
<path d="M4500 4254 c-16 -37 -20 -69 -20 -169 0 -122 22 -265 41 -265 5 0 9
6 9 13 1 7 6 5 14 -5 7 -10 17 -18 21 -18 8 0 1 98 -11 140 -3 14 -8 93 -9
175 -1 83 -3 156 -4 163 -3 26 -23 10 -41 -34z"/>
<path d="M4646 4291 c-3 -5 -5 -64 -5 -132 0 -68 -3 -158 -7 -199 -11 -126
-11 -125 9 -122 9 2 17 -3 17 -10 0 -25 28 28 40 77 30 117 20 335 -18 378
-17 19 -28 22 -36 8z"/>
<path d="M4361 4249 c-27 -44 -36 -128 -24 -219 10 -73 44 -170 60 -170 10 0
63 45 63 54 0 3 -6 6 -14 6 -25 0 -30 33 -32 195 -1 140 -3 160 -17 163 -10 2
-24 -10 -36 -29z"/>
<path d="M4788 4172 c4 -96 4 -99 -18 -105 -13 -3 -19 -10 -15 -17 4 -6 14 -9
21 -6 12 5 14 -2 9 -32 -13 -74 -25 -101 -43 -96 -14 5 -15 4 -2 -5 12 -9 13
-14 3 -31 -19 -29 -16 -60 5 -60 58 1 103 116 103 267 1 114 -15 176 -47 181
-20 3 -21 0 -16 -96z"/>
<path d="M4735 4241 c-10 -17 15 -45 29 -31 7 7 5 15 -6 26 -11 11 -18 13 -23
5z"/>
<path d="M3954 3798 c-4 -7 -4 -10 1 -6 4 4 16 3 26 -2 20 -11 52 -3 43 11 -8
14 -62 11 -70 -3z"/>
<path d="M3491 3764 c0 -11 3 -14 6 -6 3 7 2 16 -1 19 -3 4 -6 -2 -5 -13z"/>
<path d="M3521 3764 c0 -11 3 -14 6 -6 3 7 2 16 -1 19 -3 4 -6 -2 -5 -13z"/>
<path d="M3563 3738 c-11 -19 -12 -37 -3 -43 5 -3 7 3 5 12 -1 10 2 24 8 31 5
6 7 12 4 12 -3 0 -9 -6 -14 -12z"/>
<path d="M3525 3730 c3 -5 8 -10 11 -10 2 0 4 5 4 10 0 6 -5 10 -11 10 -5 0
-7 -4 -4 -10z"/>
<path d="M4270 3685 c0 -2 10 -10 23 -16 20 -11 21 -11 8 4 -13 16 -31 23 -31
12z"/>
<path d="M4160 3664 c0 -16 9 -18 28 -5 10 6 9 10 -7 14 -14 3 -21 0 -21 -9z"/>
<path d="M2903 3044 c7 -72 37 -166 55 -172 9 -3 11 4 6 25 -9 40 11 18 25
-29 13 -41 36 -65 45 -49 4 6 2 18 -3 28 -5 10 -20 39 -32 66 -23 47 -34 57
-41 35 -4 -10 -22 65 -30 126 -2 11 -9 21 -17 24 -11 4 -13 -6 -8 -54z"/>
<path d="M2824 2689 c-3 -6 0 -17 8 -25 13 -13 15 -13 15 0 0 8 -5 12 -10 9
-6 -4 -8 0 -4 10 7 19 2 23 -9 6z"/>
<path d="M2860 2664 c0 -13 62 -84 73 -83 7 0 2 7 -10 16 -13 8 -23 19 -23 24
0 5 -9 18 -20 29 -11 11 -20 17 -20 14z"/>
<path d="M3201 1994 c0 -11 3 -14 6 -6 3 7 2 16 -1 19 -3 4 -6 -2 -5 -13z"/>
<path d="M6046 3137 c3 -10 9 -15 12 -12 3 3 0 11 -7 18 -10 9 -11 8 -5 -6z"/>
<path d="M6234 3098 c8 -18 22 -90 32 -160 10 -71 21 -128 25 -128 11 0 22
124 17 182 -3 28 -12 56 -19 62 -8 6 -19 24 -24 41 -6 16 -18 31 -27 33 -16 3
-16 0 -4 -30z"/>
<path d="M6227 2923 c-11 -18 -25 -143 -16 -149 5 -2 13 5 19 16 12 23 10 152
-3 133z"/>
<path d="M6002 2125 c0 -16 2 -22 5 -12 2 9 2 23 0 30 -3 6 -5 -1 -5 -18z"/>
<path d="M4895 3240 c-38 -25 -51 -56 -25 -63 11 -3 24 1 31 9 6 8 21 14 33
14 27 0 46 18 46 42 0 25 -46 24 -85 -2z"/>
<path d="M4280 3176 c0 -2 7 -7 16 -10 8 -3 12 -2 9 4 -6 10 -25 14 -25 6z"/>
<path d="M5796 3271 c-3 -5 1 -11 9 -15 8 -3 15 -1 15 4 0 13 -18 22 -24 11z"/>
<path d="M3885 2840 c3 -5 8 -10 11 -10 2 0 4 5 4 10 0 6 -5 10 -11 10 -5 0
-7 -4 -4 -10z"/>
<path d="M4083 2898 c1 -7 -4 -12 -11 -10 -8 1 -11 -2 -7 -8 5 -8 11 -8 21 1
7 6 11 15 8 20 -8 13 -14 11 -11 -3z"/>
<path d="M4027 2884 c-8 -8 1 -24 14 -24 5 0 9 7 9 15 0 15 -12 20 -23 9z"/>
<path d="M4280 2643 c0 -5 16 -24 34 -42 29 -28 36 -44 41 -90 4 -31 9 -67 11
-81 3 -14 7 -93 11 -176 l6 -151 -46 -33 c-26 -18 -44 -36 -42 -40 7 -11 235
-9 241 2 4 5 -3 19 -14 31 -33 35 -42 72 -42 168 l0 89 100 0 c72 0 102 -4
105 -12 2 -7 6 -55 10 -106 l6 -93 -37 -34 c-19 -19 -33 -39 -29 -45 9 -14
215 -14 215 1 0 6 -13 27 -30 46 -29 33 -30 36 -30 139 0 58 4 135 10 172 5
37 12 89 16 116 4 38 13 56 36 78 17 16 28 32 24 36 -11 10 -227 19 -233 9 -3
-5 9 -23 26 -41 27 -28 31 -39 31 -86 0 -30 -4 -60 -8 -67 -5 -8 -43 -13 -107
-15 l-100 -3 -3 67 c-3 65 -2 68 33 107 27 29 33 41 23 48 -18 11 -258 17
-258 6z"/>
<path d="M5082 2648 c-15 -15 -16 -38 -2 -38 12 0 23 25 18 40 -2 7 -7 7 -16
-2z"/>
<path d="M3078 1953 c7 -3 16 -2 19 1 4 3 -2 6 -13 5 -11 0 -14 -3 -6 -6z"/>
<path d="M3020 1930 c-12 -7 -10 -9 8 -7 12 0 22 5 22 9 0 11 -12 10 -30 -2z"/>
<path d="M5190 2120 c0 -5 6 -10 14 -10 8 0 18 5 21 10 3 6 -3 10 -14 10 -12
0 -21 -4 -21 -10z"/>
<path d="M5516 2146 c9 -23 33 -28 27 -5 -3 10 -11 19 -19 19 -7 0 -11 -6 -8
-14z"/>
<path d="M2710 1741 c0 -12 6 -21 16 -21 9 0 14 7 12 17 -5 25 -28 28 -28 4z"/>
<path d="M2754 1646 c-7 -19 3 -36 22 -36 10 0 14 8 12 22 -4 26 -26 36 -34
14z"/>
<path d="M2814 1559 c-10 -16 23 -46 36 -33 6 6 8 18 4 27 -7 19 -29 22 -40 6z"/>
<path d="M5239 1836 c5 -6 7 -19 5 -29 -1 -11 0 -16 4 -12 12 12 9 52 -4 52
-9 0 -10 -5 -5 -11z"/>
<path d="M5270 1819 c0 -5 5 -7 10 -4 6 3 10 8 10 11 0 2 -4 4 -10 4 -5 0 -10
-5 -10 -11z"/>
<path d="M5327 1783 c-4 -3 -7 -11 -7 -17 0 -6 5 -5 12 2 6 6 9 14 7 17 -3 3
-9 2 -12 -2z"/>
<path d="M5125 1740 c3 -5 8 -10 11 -10 2 0 4 5 4 10 0 6 -5 10 -11 10 -5 0
-7 -4 -4 -10z"/>
<path d="M5270 1722 c0 -21 33 -56 43 -45 4 3 7 19 7 35 0 23 -4 28 -25 28
-18 0 -25 -5 -25 -18z"/>
<path d="M5070 1672 c0 -12 34 -42 48 -42 22 0 13 37 -10 44 -31 8 -38 7 -38
-2z"/>
<path d="M5249 1670 c-20 -13 -5 -22 21 -12 18 7 20 10 8 14 -8 4 -21 2 -29
-2z"/>
<path d="M5250 1610 c0 -5 5 -10 10 -10 6 0 10 5 10 10 0 6 -4 10 -10 10 -5 0
-10 -4 -10 -10z"/>
<path d="M3780 1990 c20 -13 43 -13 35 0 -3 6 -16 10 -28 10 -18 0 -19 -2 -7
-10z"/>
<path d="M3786 1809 c3 -5 -4 -9 -15 -9 -12 0 -21 -5 -21 -10 0 -6 11 -8 28
-4 38 9 47 20 23 27 -12 3 -19 1 -15 -4z"/>
<path d="M3860 1760 c0 -5 5 -10 10 -10 6 0 10 5 10 10 0 6 -4 10 -10 10 -5 0
-10 -4 -10 -10z"/>
<path d="M3772 1748 c6 -18 28 -21 28 -4 0 9 -7 16 -16 16 -9 0 -14 -5 -12
-12z"/>
<path d="M3899 1741 c11 -7 9 -10 -10 -14 -19 -3 -18 -5 9 -6 33 -1 43 12 16
23 -23 9 -31 7 -15 -3z"/>
<path d="M4195 1738 c11 -6 32 -22 47 -36 31 -28 51 -23 25 6 -10 10 -14 21
-11 25 3 3 -3 3 -14 0 -11 -2 -23 0 -26 6 -4 6 -15 11 -24 11 -14 -1 -14 -2 3
-12z"/>
<path d="M3930 1696 c7 -7 13 -7 20 0 6 6 3 10 -10 10 -13 0 -16 -4 -10 -10z"/>
<path d="M3990 1672 c0 -5 9 -17 20 -27 16 -14 20 -15 20 -4 0 16 -19 39 -32
39 -4 0 -8 -4 -8 -8z"/>
<path d="M3756 1652 c-3 -5 1 -15 9 -22 16 -14 20 -3 6 19 -5 8 -11 9 -15 3z"/>
<path d="M4280 1644 c0 -17 18 -36 30 -32 7 2 4 10 -9 22 -12 11 -21 15 -21
10z"/>
<path d="M4320 1560 c0 -20 29 -68 45 -73 21 -9 19 9 -5 33 -11 11 -20 27 -20
35 0 8 -4 15 -10 15 -5 0 -10 -5 -10 -10z"/>
<path d="M4212 1538 c6 -18 28 -21 28 -4 0 9 -7 16 -16 16 -9 0 -14 -5 -12
-12z"/>
<path d="M4125 1530 c3 -5 10 -10 16 -10 5 0 9 5 9 10 0 6 -7 10 -16 10 -8 0
-12 -4 -9 -10z"/>
<path d="M4140 1495 c0 -9 9 -15 21 -15 18 0 19 2 5 15 -8 8 -17 15 -20 15 -3
0 -6 -7 -6 -15z"/>
<path d="M4230 1475 c0 -8 5 -15 10 -15 6 0 10 7 10 15 0 8 -4 15 -10 15 -5 0
-10 -7 -10 -15z"/>
<path d="M4260 1470 c0 -5 5 -10 10 -10 6 0 10 5 10 10 0 6 -4 10 -10 10 -5 0
-10 -4 -10 -10z"/>
<path d="M4226 1441 c-4 -7 -5 -15 -2 -18 9 -9 19 4 14 18 -4 11 -6 11 -12 0z"/>
<path d="M4376 1415 c-3 -9 0 -15 9 -15 9 0 12 6 9 15 -4 8 -7 15 -9 15 -2 0
-5 -7 -9 -15z"/>
<path d="M4230 1351 c0 -5 7 -12 16 -15 24 -9 28 -7 14 9 -14 17 -30 20 -30 6z"/>
<path d="M6476 1829 c-9 -48 -8 -57 14 -79 19 -19 19 -20 2 -20 -42 0 -70 -78
-40 -108 9 -9 6 -12 -16 -12 -20 0 -38 -11 -62 -37 -19 -20 -34 -42 -34 -49 0
-6 25 -30 55 -53 50 -38 68 -61 47 -61 -5 0 -30 20 -58 45 -55 50 -57 51 -74
30 -10 -12 -8 -16 14 -25 14 -5 26 -14 26 -20 0 -12 -59 -10 -66 2 -7 11 -65
-24 -61 -37 2 -5 13 -10 25 -10 23 0 102 -71 102 -92 0 -21 -12 -16 -78 32
-34 25 -66 45 -70 45 -12 0 -42 -34 -42 -48 0 -7 10 -12 23 -12 17 0 27 -12
45 -50 25 -56 29 -85 7 -56 -20 27 -47 14 -39 -19 5 -19 2 -25 -10 -25 -9 0
-16 6 -16 13 0 18 -62 77 -81 77 -9 0 -24 -9 -34 -20 -18 -20 -18 -21 3 -26
43 -12 77 -106 43 -119 -8 -3 -15 -4 -16 -3 0 2 -15 21 -31 43 -17 22 -34 48
-37 58 -9 24 -20 22 -57 -13 -18 -16 -35 -30 -40 -30 -4 0 -19 -11 -33 -24
-14 -13 -28 -22 -31 -19 -3 3 -20 -7 -38 -23 -19 -16 -45 -36 -58 -46 -21 -13
-23 -19 -14 -35 16 -27 44 -29 44 -4 0 33 12 25 54 -34 22 -30 45 -55 51 -55
7 0 20 9 30 20 17 19 16 21 -29 66 -50 51 -58 69 -26 59 16 -5 20 -2 20 14 0
12 4 21 10 21 17 0 61 -54 67 -83 8 -39 16 -40 57 -12 20 14 39 25 42 25 9 0
156 124 167 141 7 11 17 19 23 19 6 0 23 14 37 30 15 17 31 30 36 30 5 0 12 8
15 18 4 11 18 25 31 32 27 14 34 50 11 50 -7 0 -19 7 -26 15 -11 13 -6 15 32
15 36 0 50 6 75 30 47 46 65 90 53 131 -13 43 -13 41 10 34 14 -5 29 2 50 24
40 39 39 72 -4 113 l-33 32 23 25 c13 14 27 21 31 17 4 -4 -2 -16 -14 -25 -16
-14 -19 -21 -10 -30 21 -21 46 -12 63 24 19 41 12 81 -16 90 -27 9 -76 -3 -91
-21 -17 -21 -31 -17 -19 5 15 29 12 41 -9 41 -13 0 -20 -10 -25 -31z m79 -179
c18 -7 18 -9 -10 -20 -31 -12 -55 -5 -63 18 -4 14 42 15 73 2z m-102 -119 c26
-10 44 -41 24 -41 -16 0 -76 49 -60 50 6 0 23 -4 36 -9z m-451 -423 c27 -36
41 -68 31 -68 -13 0 -83 74 -83 87 0 24 27 13 52 -19z"/>
<path d="M4601 1834 c0 -11 3 -14 6 -6 3 7 2 16 -1 19 -3 4 -6 -2 -5 -13z"/>
<path d="M4583 1741 c0 -11 5 -18 9 -15 4 3 5 11 1 19 -7 21 -12 19 -10 -4z"/>
<path d="M4581 1685 c1 -19 18 -51 18 -35 0 8 -4 22 -9 30 -5 8 -9 11 -9 5z"/>
<path d="M5764 1498 l-19 -23 23 19 c12 11 22 21 22 23 0 8 -8 2 -26 -19z"/>
<path d="M3590 703 c0 -10 -15 -39 -32 -65 -24 -35 -38 -46 -50 -42 -26 8 -23
-28 5 -53 49 -45 89 -54 119 -26 17 15 18 14 18 -19 0 -52 51 -89 93 -66 39
20 56 51 57 99 0 71 -54 105 -95 59 -23 -26 -28 -20 -15 15 9 25 6 31 -34 71
-48 47 -66 54 -66 27z m40 -92 c0 -23 -35 -69 -45 -59 -7 6 31 78 41 78 2 0 4
-9 4 -19z m120 -81 c13 -23 -2 -60 -25 -60 -17 0 -22 15 -17 52 5 33 27 37 42
8z"/>
<path d="M5038 417 c-32 -13 -37 -37 -8 -37 11 0 20 -6 20 -14 0 -8 3 -23 6
-33 4 -10 -13 1 -39 26 l-45 43 -54 -13 c-64 -16 -64 -15 -49 -32 16 -20 30
-103 19 -119 -12 -19 -37 17 -40 56 -1 17 -2 40 -2 51 -2 20 -16 22 -109 14
-35 -3 -45 -18 -23 -35 10 -7 16 -21 14 -31 -3 -14 -8 -10 -26 20 -24 38 -58
49 -91 28 -18 -11 -7 -41 15 -41 14 0 16 -9 12 -70 l-5 -70 34 0 c34 0 34 0
28 38 l-6 37 23 -37 c18 -29 30 -38 51 -38 29 0 33 12 18 52 -4 13 -11 42 -15
66 -5 34 -3 42 9 42 11 0 15 -10 15 -35 0 -76 58 -131 106 -100 36 23 43 85
17 152 -4 11 -1 14 13 11 19 -3 35 -47 37 -105 3 -43 10 -47 46 -28 38 19 39
28 6 49 -14 9 -25 24 -25 33 0 13 5 12 28 -9 87 -81 115 -72 83 26 -11 36 -20
75 -18 87 3 26 -9 30 -45 16z"/>
</g>
</svg>
