<?xml version="1.0" standalone="no"?>
<!DOCTYPE svg PUBLIC "-//W3C//DTD SVG 20010904//EN"
 "http://www.w3.org/TR/2001/REC-SVG-20010904/DTD/svg10.dtd">
<svg version="1.0" xmlns="http://www.w3.org/2000/svg"
 width="305.000000pt" height="110.000000pt" viewBox="0 0 305.000000 110.000000"
 preserveAspectRatio="xMidYMid meet">

<g transform="translate(0.000000,110.000000) scale(0.100000,-0.100000)"
fill="#000000" stroke="none">
<path d="M464 907 c-220 -84 -333 -316 -264 -538 116 -374 635 -407 803 -51
30 63 32 73 32 182 0 109 -2 119 -32 183 -42 89 -121 168 -210 210 -60 28 -80
32 -168 34 -85 3 -109 0 -161 -20z m216 3 c225 -43 381 -262 341 -477 -32
-175 -170 -312 -345 -344 -219 -41 -441 124 -477 352 -32 210 122 427 333 468
61 12 88 12 148 1z"/>
<path d="M449 593 c-1 -142 -1 -286 -1 -320 l1 -61 -27 14 c-31 16 -96 19 -87
4 3 -5 22 -10 41 -10 24 0 43 -8 59 -25 l25 -24 25 24 c24 25 26 25 215 25
120 0 190 4 190 10 0 16 -337 12 -382 -4 -35 -12 -38 -12 -38 4 0 9 9 25 21
36 19 17 43 20 238 25 l216 5 -220 0 c-121 -1 -228 -5 -237 -10 -25 -12 -24
25 0 47 16 15 49 17 250 17 153 0 232 4 232 10 0 13 -456 9 -482 -4 -17 -8
-18 7 -18 243 0 161 -4 251 -10 251 -6 0 -10 -93 -11 -257z"/>
<path d="M527 483 c-10 -21 -1 -68 14 -71 17 -3 49 22 49 38 0 24 -53 52 -63
33z m43 -18 c10 -12 10 -18 0 -30 -19 -23 -29 -18 -28 15 1 33 9 38 28 15z"/>
<path d="M603 450 c0 -25 2 -35 4 -22 3 13 12 22 23 22 11 0 20 -9 23 -22 2
-13 4 -3 4 22 1 25 -1 37 -4 28 -2 -10 -13 -18 -23 -18 -10 0 -21 8 -23 18 -3
9 -5 -3 -4 -28z"/>
<path d="M693 483 c-14 -5 -18 -62 -5 -64 50 -9 53 -7 50 30 -3 35 -17 46 -45
34z m32 -33 c0 -27 -22 -39 -31 -16 -8 22 3 49 19 43 6 -2 12 -14 12 -27z"/>
<path d="M773 483 c-18 -7 -16 -60 2 -67 8 -3 22 -3 30 0 17 7 21 34 5 34 -5
0 -9 -6 -7 -12 1 -7 -5 -13 -13 -13 -9 0 -15 9 -15 25 0 20 4 25 23 23 13 -2
21 1 17 7 -7 11 -22 12 -42 3z"/>
<path d="M843 450 c0 -25 2 -35 4 -22 3 13 12 22 23 22 11 0 20 -9 23 -22 2
-13 4 -3 4 22 1 25 -1 37 -4 28 -2 -10 -13 -18 -23 -18 -10 0 -21 8 -23 18 -3
9 -5 -3 -4 -28z"/>
<path d="M922 455 c0 -25 2 -31 5 -16 l5 24 19 -29 c10 -16 19 -27 20 -24 0 3
2 21 4 40 2 19 1 25 -2 13 -4 -21 -23 -33 -23 -15 0 5 -7 17 -15 28 -13 18
-14 16 -13 -21z"/>
<path d="M325 360 c44 -3 89 -10 100 -14 20 -8 20 -7 1 8 -15 12 -40 16 -100
14 l-81 -1 80 -7z"/>
<path d="M283 294 c3 -3 32 -7 64 -8 32 -1 67 -5 78 -10 20 -8 20 -7 1 8 -14
11 -40 16 -85 16 -35 0 -62 -3 -58 -6z"/>
<path d="M2420 870 l0 -50 100 0 100 0 0 50 0 50 -100 0 -100 0 0 -50z"/>
<path d="M1140 832 c0 -5 29 -103 64 -218 l63 -208 49 3 c27 1 50 4 51 5 2 1
93 291 129 409 5 14 -1 17 -39 17 l-43 0 -44 -147 c-24 -82 -46 -151 -50 -156
-4 -4 -27 61 -51 145 l-45 153 -42 3 c-23 2 -42 -1 -42 -6z"/>
<path d="M1540 623 l0 -219 35 4 35 4 0 140 c0 87 4 138 10 136 5 -1 45 -64
89 -138 l78 -135 47 -5 46 -6 0 218 0 218 -40 0 -39 0 -3 -147 -3 -148 -85
145 -86 145 -42 3 -42 3 0 -218z"/>
<path d="M1930 683 c0 -179 9 -210 70 -251 31 -21 44 -23 112 -20 58 2 83 8
105 24 51 38 58 65 61 242 l4 162 -46 0 -46 0 0 -159 0 -160 -26 -20 c-36 -28
-86 -27 -121 3 l-28 24 -4 156 -3 156 -39 0 -39 0 0 -157z"/>
<path d="M2480 622 c0 -4 9 -18 21 -32 l20 -25 -3 29 c-2 19 -9 30 -20 32 -10
1 -18 -1 -18 -4z"/>
<path d="M2546 561 c-18 -7 -18 -8 -2 -14 30 -12 56 -8 56 8 0 16 -23 18 -54
6z"/>
<path d="M2473 546 c-7 -8 -16 -16 -21 -17 -5 -2 -12 -14 -16 -26 -10 -33 27
-19 59 23 23 30 24 34 8 34 -10 -1 -23 -7 -30 -14z"/>
<path d="M2520 531 c0 -5 7 -15 17 -22 15 -13 15 -12 4 9 -12 23 -21 28 -21
13z"/>
<path d="M1137 303 c-4 -3 -7 -21 -7 -40 0 -28 4 -33 23 -33 45 0 65 50 28 70
-23 12 -35 13 -44 3z m43 -18 c7 -8 10 -22 6 -30 -6 -17 -46 -21 -46 -5 0 6 5
10 11 10 8 0 9 4 0 13 -10 13 -6 27 9 27 4 0 13 -7 20 -15z"/>
<path d="M1229 283 c-20 -56 -20 -54 1 -41 14 9 22 9 34 -1 9 -8 16 -11 16 -8
0 10 -31 77 -35 77 -3 0 -10 -12 -16 -27z m26 -13 c3 -5 -1 -10 -10 -10 -9 0
-13 5 -10 10 3 6 8 10 10 10 2 0 7 -4 10 -10z"/>
<path d="M1362 270 c0 -25 2 -37 5 -27 2 9 13 17 23 17 10 0 21 -8 23 -17 3
-10 5 2 4 27 0 25 -2 35 -4 23 -2 -13 -11 -23 -19 -23 -8 0 -19 10 -24 23 -7
18 -9 13 -8 -23z"/>
<path d="M1450 295 c-7 -9 -10 -25 -6 -41 5 -20 12 -25 34 -22 21 2 28 9 30
32 5 42 -32 62 -58 31z m48 -28 c3 -22 -1 -27 -18 -27 -26 0 -37 25 -20 45 18
22 34 13 38 -18z"/>
<path d="M1540 295 c-7 -9 -10 -25 -6 -41 5 -20 12 -25 33 -22 15 2 29 10 31
18 5 13 3 13 -11 1 -19 -15 -47 -8 -47 12 0 8 7 20 15 27 12 10 18 10 33 -1
15 -13 16 -12 3 4 -17 21 -35 22 -51 2z"/>
<path d="M1662 301 c-8 -5 -12 -21 -10 -37 2 -22 9 -30 33 -34 28 -6 30 -4 32
24 4 46 -22 68 -55 47z m42 -24 c8 -13 7 -20 -4 -27 -25 -16 -40 -11 -40 13 0
41 23 48 44 14z"/>
<path d="M1744 270 c1 -30 4 -35 26 -35 22 0 25 5 26 35 1 35 1 35 -3 3 -3
-24 -9 -33 -23 -33 -14 0 -20 9 -23 33 -4 32 -4 32 -3 -3z"/>
<path d="M1830 296 c-6 -8 -10 -25 -8 -38 2 -18 9 -23 33 -23 24 0 31 5 33 23
6 42 -33 68 -58 38z m45 -26 c0 -16 -6 -26 -18 -28 -19 -4 -32 20 -23 44 9 25
41 13 41 -16z"/>
<path d="M1921 296 c-21 -26 -10 -61 22 -64 15 -2 27 1 27 6 0 5 -10 8 -22 8
-25 -1 -37 29 -19 47 7 7 15 6 27 -4 15 -12 17 -12 12 1 -7 21 -32 24 -47 6z"/>
<path d="M2036 294 c-29 -29 -12 -64 31 -64 16 0 23 6 23 20 0 11 -4 20 -10
20 -5 0 -7 -7 -4 -15 4 -10 0 -15 -14 -15 -26 0 -34 23 -17 46 11 15 15 16 29
5 9 -7 16 -9 16 -3 0 5 -7 13 -16 16 -21 8 -20 8 -38 -10z"/>
<path d="M2160 284 c-21 -57 -21 -55 0 -42 14 9 22 9 34 -1 14 -12 15 -10 5
20 -17 50 -27 56 -39 23z m25 -14 c3 -5 -1 -10 -10 -10 -9 0 -13 5 -10 10 3 6
8 10 10 10 2 0 7 -4 10 -10z"/>
<path d="M2263 270 c-1 -25 1 -37 4 -27 2 9 13 17 23 17 10 0 21 -8 23 -17 3
-10 5 2 5 27 1 36 -1 41 -8 23 -5 -13 -16 -23 -24 -23 -8 0 -17 10 -19 23 -2
12 -4 2 -4 -23z"/>
<path d="M2452 270 c1 -32 2 -37 5 -16 l5 29 23 -29 24 -29 -1 45 c-1 32 -2
37 -5 16 l-5 -29 -23 29 -24 29 1 -45z"/>
<path d="M2545 297 c-13 -10 -16 -21 -11 -41 5 -22 11 -27 34 -24 21 2 28 9
30 32 5 41 -20 56 -53 33z m43 -30 c3 -22 -1 -27 -18 -27 -26 0 -37 25 -20 45
18 22 34 13 38 -18z"/>
<path d="M1303 265 c0 -22 2 -30 4 -17 2 12 2 30 0 40 -3 9 -5 -1 -4 -23z"/>
<path d="M2110 265 c0 -19 2 -35 4 -35 2 0 6 16 8 35 2 19 0 35 -4 35 -4 0 -8
-16 -8 -35z"/>
<path d="M2349 273 c-5 -14 -8 -31 -5 -37 3 -7 5 -6 5 2 1 15 41 16 41 0 0 -6
2 -9 5 -6 8 7 -16 68 -26 68 -5 0 -14 -12 -20 -27z m31 -3 c0 -5 -4 -10 -10
-10 -5 0 -10 5 -10 10 0 6 5 10 10 10 6 0 10 -4 10 -10z"/>
<path d="M2620 265 c0 -19 4 -35 8 -35 4 0 6 16 4 35 -2 19 -6 35 -8 35 -2 0
-4 -16 -4 -35z"/>
<path d="M1640 134 c0 -24 -2 -25 -17 -13 -15 13 -15 12 -2 -8 20 -32 29 -28
29 12 0 19 -2 35 -5 35 -3 0 -5 -12 -5 -26z"/>
<path d="M1733 125 c0 -22 2 -30 4 -17 2 12 2 30 0 40 -3 9 -5 -1 -4 -23z"/>
<path d="M1983 125 c0 -22 2 -30 4 -17 2 12 2 30 0 40 -3 9 -5 -1 -4 -23z"/>
<path d="M2040 131 c0 -17 4 -32 8 -35 4 -2 6 11 4 30 -5 42 -12 45 -12 5z"/>
<path d="M2453 125 c0 -22 2 -30 4 -17 2 12 2 30 0 40 -3 9 -5 -1 -4 -23z"/>
<path d="M2663 125 c0 -22 2 -30 4 -17 2 12 2 30 0 40 -3 9 -5 -1 -4 -23z"/>
<path d="M1492 115 c0 -16 2 -22 5 -12 2 9 2 23 0 30 -3 6 -5 -1 -5 -18z"/>
<path d="M1702 115 c0 -16 2 -22 5 -12 2 9 2 23 0 30 -3 6 -5 -1 -5 -18z"/>
<path d="M2122 115 c0 -16 2 -22 5 -12 2 9 2 23 0 30 -3 6 -5 -1 -5 -18z"/>
<path d="M2721 124 c0 -11 3 -14 6 -6 3 7 2 16 -1 19 -3 4 -6 -2 -5 -13z"/>
<path d="M2752 115 c0 -16 2 -22 5 -12 2 9 2 23 0 30 -3 6 -5 -1 -5 -18z"/>
<path d="M2813 124 c-3 -8 -2 -19 3 -24 5 -5 9 1 9 16 0 28 -3 30 -12 8z"/>
<path d="M2162 110 c0 -14 2 -19 5 -12 2 6 2 18 0 25 -3 6 -5 1 -5 -13z"/>
<path d="M2380 116 c0 -2 7 -7 16 -10 8 -3 12 -2 9 4 -6 10 -25 14 -25 6z"/>
<path d="M1150 100 c0 -5 5 -10 11 -10 5 0 7 5 4 10 -3 6 -8 10 -11 10 -2 0
-4 -4 -4 -10z"/>
</g>
</svg>
